<svg width="232" height="68" viewBox="0 0 232 68" fill="none" xmlns="http://www.w3.org/2000/svg">
<mask id="path-1-outside-1_4_116" maskUnits="userSpaceOnUse" x="1" y="13" width="196" height="39" fill="black">
<rect fill="white" x="1" y="13" width="196" height="39"/>
<path d="M8.5332 26.4645V22.1818H26.9743V26.4645H20.3585V44H15.1596V26.4645H8.5332ZM29.5497 44V27.6364H34.7592V44H29.5497ZM32.1598 25.7294C31.4283 25.7294 30.7997 25.4879 30.2741 25.005C29.7486 24.5149 29.4858 23.9254 29.4858 23.2365C29.4858 22.5547 29.7486 21.9723 30.2741 21.4893C30.7997 20.9993 31.4283 20.7543 32.1598 20.7543C32.8984 20.7543 33.527 20.9993 34.0455 21.4893C34.571 21.9723 34.8338 22.5547 34.8338 23.2365C34.8338 23.9254 34.571 24.5149 34.0455 25.005C33.527 25.4879 32.8984 25.7294 32.1598 25.7294ZM38.0751 44V27.6364H43.0289V30.6406H43.21C43.551 29.6463 44.1262 28.8615 44.9359 28.2862C45.7456 27.7109 46.7115 27.4233 47.8336 27.4233C48.97 27.4233 49.943 27.7145 50.7527 28.2969C51.5623 28.8793 52.0772 29.6605 52.2974 30.6406H52.4679C52.7733 29.6676 53.3699 28.8899 54.2576 28.3075C55.1454 27.718 56.193 27.4233 57.4004 27.4233C58.9487 27.4233 60.2058 27.9205 61.1717 28.9148C62.1376 29.902 62.6206 31.2585 62.6206 32.9844V44H57.411V34.1776C57.411 33.3608 57.2015 32.7393 56.7825 32.3132C56.3635 31.88 55.8201 31.6634 55.1525 31.6634C54.4352 31.6634 53.8706 31.8977 53.4586 32.3665C53.0538 32.8281 52.8514 33.4496 52.8514 34.2308V44H47.8443V34.1243C47.8443 33.3643 47.6383 32.7642 47.2264 32.3239C46.8145 31.8835 46.2711 31.6634 45.5964 31.6634C45.1419 31.6634 44.7406 31.7734 44.3926 31.9936C44.0446 32.2067 43.7711 32.5121 43.5723 32.9098C43.3805 33.3075 43.2846 33.7763 43.2846 34.3161V44H38.0751ZM73.4977 44.3089C71.786 44.3089 70.3088 43.9716 69.0659 43.2969C67.8301 42.6151 66.8784 41.6456 66.2108 40.3885C65.5502 39.1243 65.22 37.6222 65.22 35.8821C65.22 34.1918 65.5538 32.7145 66.2214 31.4503C66.889 30.179 67.8301 29.1918 69.0446 28.4886C70.2591 27.7784 71.6902 27.4233 73.3379 27.4233C74.5027 27.4233 75.568 27.6044 76.5339 27.9666C77.4998 28.3288 78.3343 28.8651 79.0375 29.5753C79.7406 30.2855 80.2875 31.1626 80.6781 32.2067C81.0687 33.2436 81.264 34.4332 81.264 35.7756V37.0753H67.0417V34.0497H76.4167C76.4096 33.4957 76.2782 33.0021 76.0226 32.5689C75.7669 32.1357 75.4153 31.7983 74.9679 31.5568C74.5275 31.3082 74.0197 31.1839 73.4444 31.1839C72.862 31.1839 72.34 31.3153 71.8784 31.5781C71.4167 31.8338 71.051 32.1854 70.7811 32.6328C70.5112 33.0732 70.3691 33.5739 70.3549 34.1349V37.2138C70.3549 37.8814 70.4863 38.4673 70.7491 38.9716C71.0119 39.4687 71.3848 39.8558 71.8677 40.1328C72.3507 40.4098 72.926 40.5483 73.5936 40.5483C74.0552 40.5483 74.4743 40.4844 74.8507 40.3565C75.2271 40.2287 75.5502 40.0405 75.8201 39.7919C76.09 39.5433 76.2924 39.2379 76.4274 38.8757L81.2108 39.0142C81.0119 40.0866 80.5751 41.0206 79.9004 41.8161C79.2328 42.6044 78.3556 43.2187 77.269 43.6591C76.1824 44.0923 74.9252 44.3089 73.4977 44.3089ZM94.397 33.1655V37.1818H84.2976V33.1655H94.397ZM107.312 27.6364V31.4716H96.9885V27.6364H107.312ZM99.1511 23.7159H104.361V38.8544C104.361 39.174 104.41 39.4332 104.51 39.6321C104.616 39.8239 104.769 39.9624 104.968 40.0476C105.167 40.1257 105.405 40.1648 105.682 40.1648C105.881 40.1648 106.09 40.147 106.31 40.1115C106.537 40.0689 106.708 40.0334 106.822 40.005L107.61 43.7656C107.361 43.8366 107.01 43.9254 106.555 44.032C106.108 44.1385 105.572 44.206 104.947 44.2344C103.725 44.2912 102.677 44.1491 101.804 43.8082C100.937 43.4602 100.273 42.9205 99.8116 42.1889C99.3571 41.4574 99.1369 40.5376 99.1511 39.4297V23.7159ZM113.027 44L108.766 27.6364H113.997L116.202 38.1193H116.34L118.705 27.6364H123.808L126.237 38.0447H126.376L128.517 27.6364H133.748L129.476 44H123.904L121.347 34.4652H121.166L118.61 44H113.027ZM135.839 44V27.6364H141.048V44H135.839ZM138.449 25.7294C137.717 25.7294 137.089 25.4879 136.563 25.005C136.038 24.5149 135.775 23.9254 135.775 23.2365C135.775 22.5547 136.038 21.9723 136.563 21.4893C137.089 20.9993 137.717 20.7543 138.449 20.7543C139.188 20.7543 139.816 20.9993 140.335 21.4893C140.86 21.9723 141.123 22.5547 141.123 23.2365C141.123 23.9254 140.86 24.5149 140.335 25.005C139.816 25.4879 139.188 25.7294 138.449 25.7294ZM153.601 27.6364V31.4716H143.278V27.6364H153.601ZM145.44 23.7159H150.65V38.8544C150.65 39.174 150.699 39.4332 150.799 39.6321C150.905 39.8239 151.058 39.9624 151.257 40.0476C151.456 40.1257 151.694 40.1648 151.971 40.1648C152.17 40.1648 152.379 40.147 152.599 40.1115C152.827 40.0689 152.997 40.0334 153.111 40.005L153.899 43.7656C153.65 43.8366 153.299 43.9254 152.844 44.032C152.397 44.1385 151.861 44.206 151.236 44.2344C150.014 44.2912 148.966 44.1491 148.093 43.8082C147.226 43.4602 146.562 42.9205 146.101 42.1889C145.646 41.4574 145.426 40.5376 145.44 39.4297V23.7159ZM163.721 44.3089C161.996 44.3089 160.515 43.9538 159.279 43.2436C158.05 42.5334 157.106 41.5462 156.445 40.282C155.785 39.0107 155.454 37.5405 155.454 35.8714C155.454 34.1953 155.785 32.7251 156.445 31.4609C157.113 30.1896 158.061 29.1989 159.29 28.4886C160.525 27.7784 161.999 27.4233 163.711 27.4233C165.224 27.4233 166.541 27.6967 167.663 28.2436C168.792 28.7905 169.673 29.5646 170.305 30.5661C170.944 31.5604 171.282 32.7287 171.317 34.071H166.449C166.349 33.233 166.065 32.576 165.596 32.1001C165.135 31.6243 164.531 31.3864 163.785 31.3864C163.182 31.3864 162.653 31.5568 162.198 31.8977C161.743 32.2315 161.388 32.7287 161.133 33.3892C160.884 34.0426 160.76 34.8523 160.76 35.8182C160.76 36.7841 160.884 37.6009 161.133 38.2685C161.388 38.929 161.743 39.4297 162.198 39.7706C162.653 40.1044 163.182 40.2713 163.785 40.2713C164.268 40.2713 164.694 40.1683 165.064 39.9624C165.44 39.7564 165.749 39.4545 165.991 39.0568C166.232 38.652 166.385 38.1619 166.449 37.5866H171.317C171.268 38.9361 170.93 40.1151 170.305 41.1236C169.687 42.1321 168.817 42.9169 167.695 43.478C166.58 44.032 165.256 44.3089 163.721 44.3089ZM179.193 34.6676V44H173.983V22.1818H179.022V30.6406H179.203C179.573 29.6321 180.176 28.8437 181.015 28.2756C181.86 27.7074 182.893 27.4233 184.115 27.4233C185.265 27.4233 186.267 27.679 187.119 28.1903C187.971 28.6946 188.632 29.4084 189.1 30.3317C189.576 31.255 189.811 32.3345 189.804 33.5703V44H184.594V34.593C184.601 33.6839 184.374 32.9737 183.912 32.4624C183.451 31.951 182.801 31.6953 181.963 31.6953C181.416 31.6953 180.933 31.8161 180.514 32.0575C180.102 32.2919 179.779 32.6293 179.544 33.0696C179.317 33.5099 179.2 34.0426 179.193 34.6676Z"/>
</mask>
<path d="M8.5332 26.4645V22.1818H26.9743V26.4645H20.3585V44H15.1596V26.4645H8.5332ZM29.5497 44V27.6364H34.7592V44H29.5497ZM32.1598 25.7294C31.4283 25.7294 30.7997 25.4879 30.2741 25.005C29.7486 24.5149 29.4858 23.9254 29.4858 23.2365C29.4858 22.5547 29.7486 21.9723 30.2741 21.4893C30.7997 20.9993 31.4283 20.7543 32.1598 20.7543C32.8984 20.7543 33.527 20.9993 34.0455 21.4893C34.571 21.9723 34.8338 22.5547 34.8338 23.2365C34.8338 23.9254 34.571 24.5149 34.0455 25.005C33.527 25.4879 32.8984 25.7294 32.1598 25.7294ZM38.0751 44V27.6364H43.0289V30.6406H43.21C43.551 29.6463 44.1262 28.8615 44.9359 28.2862C45.7456 27.7109 46.7115 27.4233 47.8336 27.4233C48.97 27.4233 49.943 27.7145 50.7527 28.2969C51.5623 28.8793 52.0772 29.6605 52.2974 30.6406H52.4679C52.7733 29.6676 53.3699 28.8899 54.2576 28.3075C55.1454 27.718 56.193 27.4233 57.4004 27.4233C58.9487 27.4233 60.2058 27.9205 61.1717 28.9148C62.1376 29.902 62.6206 31.2585 62.6206 32.9844V44H57.411V34.1776C57.411 33.3608 57.2015 32.7393 56.7825 32.3132C56.3635 31.88 55.8201 31.6634 55.1525 31.6634C54.4352 31.6634 53.8706 31.8977 53.4586 32.3665C53.0538 32.8281 52.8514 33.4496 52.8514 34.2308V44H47.8443V34.1243C47.8443 33.3643 47.6383 32.7642 47.2264 32.3239C46.8145 31.8835 46.2711 31.6634 45.5964 31.6634C45.1419 31.6634 44.7406 31.7734 44.3926 31.9936C44.0446 32.2067 43.7711 32.5121 43.5723 32.9098C43.3805 33.3075 43.2846 33.7763 43.2846 34.3161V44H38.0751ZM73.4977 44.3089C71.786 44.3089 70.3088 43.9716 69.0659 43.2969C67.8301 42.6151 66.8784 41.6456 66.2108 40.3885C65.5502 39.1243 65.22 37.6222 65.22 35.8821C65.22 34.1918 65.5538 32.7145 66.2214 31.4503C66.889 30.179 67.8301 29.1918 69.0446 28.4886C70.2591 27.7784 71.6902 27.4233 73.3379 27.4233C74.5027 27.4233 75.568 27.6044 76.5339 27.9666C77.4998 28.3288 78.3343 28.8651 79.0375 29.5753C79.7406 30.2855 80.2875 31.1626 80.6781 32.2067C81.0687 33.2436 81.264 34.4332 81.264 35.7756V37.0753H67.0417V34.0497H76.4167C76.4096 33.4957 76.2782 33.0021 76.0226 32.5689C75.7669 32.1357 75.4153 31.7983 74.9679 31.5568C74.5275 31.3082 74.0197 31.1839 73.4444 31.1839C72.862 31.1839 72.34 31.3153 71.8784 31.5781C71.4167 31.8338 71.051 32.1854 70.7811 32.6328C70.5112 33.0732 70.3691 33.5739 70.3549 34.1349V37.2138C70.3549 37.8814 70.4863 38.4673 70.7491 38.9716C71.0119 39.4687 71.3848 39.8558 71.8677 40.1328C72.3507 40.4098 72.926 40.5483 73.5936 40.5483C74.0552 40.5483 74.4743 40.4844 74.8507 40.3565C75.2271 40.2287 75.5502 40.0405 75.8201 39.7919C76.09 39.5433 76.2924 39.2379 76.4274 38.8757L81.2108 39.0142C81.0119 40.0866 80.5751 41.0206 79.9004 41.8161C79.2328 42.6044 78.3556 43.2187 77.269 43.6591C76.1824 44.0923 74.9252 44.3089 73.4977 44.3089ZM94.397 33.1655V37.1818H84.2976V33.1655H94.397ZM107.312 27.6364V31.4716H96.9885V27.6364H107.312ZM99.1511 23.7159H104.361V38.8544C104.361 39.174 104.41 39.4332 104.51 39.6321C104.616 39.8239 104.769 39.9624 104.968 40.0476C105.167 40.1257 105.405 40.1648 105.682 40.1648C105.881 40.1648 106.09 40.147 106.31 40.1115C106.537 40.0689 106.708 40.0334 106.822 40.005L107.61 43.7656C107.361 43.8366 107.01 43.9254 106.555 44.032C106.108 44.1385 105.572 44.206 104.947 44.2344C103.725 44.2912 102.677 44.1491 101.804 43.8082C100.937 43.4602 100.273 42.9205 99.8116 42.1889C99.3571 41.4574 99.1369 40.5376 99.1511 39.4297V23.7159ZM113.027 44L108.766 27.6364H113.997L116.202 38.1193H116.34L118.705 27.6364H123.808L126.237 38.0447H126.376L128.517 27.6364H133.748L129.476 44H123.904L121.347 34.4652H121.166L118.61 44H113.027ZM135.839 44V27.6364H141.048V44H135.839ZM138.449 25.7294C137.717 25.7294 137.089 25.4879 136.563 25.005C136.038 24.5149 135.775 23.9254 135.775 23.2365C135.775 22.5547 136.038 21.9723 136.563 21.4893C137.089 20.9993 137.717 20.7543 138.449 20.7543C139.188 20.7543 139.816 20.9993 140.335 21.4893C140.86 21.9723 141.123 22.5547 141.123 23.2365C141.123 23.9254 140.86 24.5149 140.335 25.005C139.816 25.4879 139.188 25.7294 138.449 25.7294ZM153.601 27.6364V31.4716H143.278V27.6364H153.601ZM145.44 23.7159H150.65V38.8544C150.65 39.174 150.699 39.4332 150.799 39.6321C150.905 39.8239 151.058 39.9624 151.257 40.0476C151.456 40.1257 151.694 40.1648 151.971 40.1648C152.17 40.1648 152.379 40.147 152.599 40.1115C152.827 40.0689 152.997 40.0334 153.111 40.005L153.899 43.7656C153.65 43.8366 153.299 43.9254 152.844 44.032C152.397 44.1385 151.861 44.206 151.236 44.2344C150.014 44.2912 148.966 44.1491 148.093 43.8082C147.226 43.4602 146.562 42.9205 146.101 42.1889C145.646 41.4574 145.426 40.5376 145.44 39.4297V23.7159ZM163.721 44.3089C161.996 44.3089 160.515 43.9538 159.279 43.2436C158.05 42.5334 157.106 41.5462 156.445 40.282C155.785 39.0107 155.454 37.5405 155.454 35.8714C155.454 34.1953 155.785 32.7251 156.445 31.4609C157.113 30.1896 158.061 29.1989 159.29 28.4886C160.525 27.7784 161.999 27.4233 163.711 27.4233C165.224 27.4233 166.541 27.6967 167.663 28.2436C168.792 28.7905 169.673 29.5646 170.305 30.5661C170.944 31.5604 171.282 32.7287 171.317 34.071H166.449C166.349 33.233 166.065 32.576 165.596 32.1001C165.135 31.6243 164.531 31.3864 163.785 31.3864C163.182 31.3864 162.653 31.5568 162.198 31.8977C161.743 32.2315 161.388 32.7287 161.133 33.3892C160.884 34.0426 160.76 34.8523 160.76 35.8182C160.76 36.7841 160.884 37.6009 161.133 38.2685C161.388 38.929 161.743 39.4297 162.198 39.7706C162.653 40.1044 163.182 40.2713 163.785 40.2713C164.268 40.2713 164.694 40.1683 165.064 39.9624C165.44 39.7564 165.749 39.4545 165.991 39.0568C166.232 38.652 166.385 38.1619 166.449 37.5866H171.317C171.268 38.9361 170.93 40.1151 170.305 41.1236C169.687 42.1321 168.817 42.9169 167.695 43.478C166.58 44.032 165.256 44.3089 163.721 44.3089ZM179.193 34.6676V44H173.983V22.1818H179.022V30.6406H179.203C179.573 29.6321 180.176 28.8437 181.015 28.2756C181.86 27.7074 182.893 27.4233 184.115 27.4233C185.265 27.4233 186.267 27.679 187.119 28.1903C187.971 28.6946 188.632 29.4084 189.1 30.3317C189.576 31.255 189.811 32.3345 189.804 33.5703V44H184.594V34.593C184.601 33.6839 184.374 32.9737 183.912 32.4624C183.451 31.951 182.801 31.6953 181.963 31.6953C181.416 31.6953 180.933 31.8161 180.514 32.0575C180.102 32.2919 179.779 32.6293 179.544 33.0696C179.317 33.5099 179.2 34.0426 179.193 34.6676Z" fill="white"/>
<path d="M8.5332 26.4645H1.5332V33.4645H8.5332V26.4645ZM8.5332 22.1818V15.1818H1.5332V22.1818H8.5332ZM26.9743 22.1818H33.9743V15.1818H26.9743V22.1818ZM26.9743 26.4645V33.4645H33.9743V26.4645H26.9743ZM20.3585 26.4645V19.4645H13.3585V26.4645H20.3585ZM20.3585 44V51H27.3585V44H20.3585ZM15.1596 44H8.15962V51H15.1596V44ZM15.1596 26.4645H22.1596V19.4645H15.1596V26.4645ZM15.5332 26.4645V22.1818H1.5332V26.4645H15.5332ZM8.5332 29.1818H26.9743V15.1818H8.5332V29.1818ZM19.9743 22.1818V26.4645H33.9743V22.1818H19.9743ZM26.9743 19.4645H20.3585V33.4645H26.9743V19.4645ZM13.3585 26.4645V44H27.3585V26.4645H13.3585ZM20.3585 37H15.1596V51H20.3585V37ZM22.1596 44V26.4645H8.15962V44H22.1596ZM15.1596 19.4645H8.5332V33.4645H15.1596V19.4645ZM29.5497 44H22.5497V51H29.5497V44ZM29.5497 27.6364V20.6364H22.5497V27.6364H29.5497ZM34.7592 27.6364H41.7592V20.6364H34.7592V27.6364ZM34.7592 44V51H41.7592V44H34.7592ZM30.2741 25.005L25.5004 30.1247L25.519 30.142L25.5378 30.1593L30.2741 25.005ZM30.2741 21.4893L35.0105 26.6436L35.0293 26.6264L35.0479 26.609L30.2741 21.4893ZM34.0455 21.4893L29.237 26.5765L29.2728 26.6103L29.3091 26.6436L34.0455 21.4893ZM34.0455 25.005L38.8167 30.127L38.8192 30.1247L34.0455 25.005ZM36.5497 44V27.6364H22.5497V44H36.5497ZM29.5497 34.6364H34.7592V20.6364H29.5497V34.6364ZM27.7592 27.6364V44H41.7592V27.6364H27.7592ZM34.7592 37H29.5497V51H34.7592V37ZM32.1598 18.7294C32.5779 18.7294 33.0966 18.8013 33.6501 19.0139C34.2066 19.2277 34.6641 19.5324 35.0105 19.8507L25.5378 30.1593C27.3902 31.8615 29.7222 32.7294 32.1598 32.7294V18.7294ZM35.0479 19.8853C35.3938 20.2078 35.7844 20.6901 36.0764 21.3452C36.3714 22.0069 36.4858 22.6662 36.4858 23.2365H22.4858C22.4858 25.9592 23.6238 28.3749 25.5004 30.1247L35.0479 19.8853ZM36.4858 23.2365C36.4858 23.8205 36.3673 24.4939 36.0634 25.1674C35.7629 25.8334 35.3622 26.3205 35.0105 26.6436L25.5378 16.335C23.6459 18.0735 22.4858 20.4942 22.4858 23.2365H36.4858ZM35.0479 26.609C34.7051 26.9287 34.2465 27.24 33.6822 27.46C33.1201 27.6791 32.5901 27.7543 32.1598 27.7543V13.7543C29.6918 13.7543 27.3475 14.6473 25.5004 16.3697L35.0479 26.609ZM32.1598 27.7543C31.742 27.7543 31.2125 27.6821 30.6427 27.46C30.0686 27.2362 29.5954 26.9152 29.237 26.5765L38.8539 16.4022C36.9858 14.6365 34.6167 13.7543 32.1598 13.7543V27.7543ZM29.3091 26.6436C28.9574 26.3205 28.5567 25.8334 28.2562 25.1674C27.9523 24.4939 27.8338 23.8205 27.8338 23.2365H41.8338C41.8338 20.4942 40.6737 18.0735 38.7818 16.3351L29.3091 26.6436ZM27.8338 23.2365C27.8338 22.6662 27.9482 22.0069 28.2432 21.3452C28.5352 20.6901 28.9258 20.2078 29.2717 19.8853L38.8192 30.1247C40.6958 28.3749 41.8338 25.9592 41.8338 23.2365H27.8338ZM29.2742 19.8829C29.6364 19.5456 30.1087 19.2314 30.6748 19.0139C31.236 18.7983 31.7542 18.7294 32.1598 18.7294V32.7294C34.5862 32.7294 36.9432 31.8722 38.8167 30.127L29.2742 19.8829ZM38.0751 44H31.0751V51H38.0751V44ZM38.0751 27.6364V20.6364H31.0751V27.6364H38.0751ZM43.0289 27.6364H50.0289V20.6364H43.0289V27.6364ZM43.0289 30.6406H36.0289V37.6406H43.0289V30.6406ZM43.21 30.6406V37.6406H48.2101L49.8317 32.9109L43.21 30.6406ZM44.9359 28.2862L48.9903 33.9925L48.9904 33.9925L44.9359 28.2862ZM50.7527 28.2969L46.6652 33.9795L46.6652 33.9795L50.7527 28.2969ZM52.2974 30.6406L45.4676 32.1749L46.6954 37.6406H52.2974V30.6406ZM52.4679 30.6406V37.6406H57.6075L59.1466 32.7369L52.4679 30.6406ZM54.2576 28.3075L58.0972 34.1605L58.1135 34.1498L58.1298 34.139L54.2576 28.3075ZM61.1717 28.9148L56.1507 33.7923L56.1595 33.8013L56.1682 33.8102L61.1717 28.9148ZM62.6206 44V51H69.6206V44H62.6206ZM57.411 44H50.411V51H57.411V44ZM56.7825 32.3132L51.7509 37.1798L51.7711 37.2006L51.7913 37.2212L56.7825 32.3132ZM53.4586 32.3665L48.2005 27.7457L48.1956 27.7512L53.4586 32.3665ZM52.8514 44V51H59.8514V44H52.8514ZM47.8443 44H40.8443V51H47.8443V44ZM47.2264 32.3239L52.3383 27.5418L52.3383 27.5418L47.2264 32.3239ZM44.3926 31.9936L48.0477 37.9636L48.0916 37.9367L48.1351 37.9092L44.3926 31.9936ZM43.5723 32.9098L37.3113 29.7793L37.2888 29.8243L37.2669 29.8697L43.5723 32.9098ZM43.2846 44V51H50.2846V44H43.2846ZM45.0751 44V27.6364H31.0751V44H45.0751ZM38.0751 34.6364H43.0289V20.6364H38.0751V34.6364ZM36.0289 27.6364V30.6406H50.0289V27.6364H36.0289ZM43.0289 37.6406H43.21V23.6406H43.0289V37.6406ZM49.8317 32.9109C49.7913 33.0287 49.7051 33.2234 49.5428 33.4447C49.3782 33.6693 49.1836 33.8552 48.9903 33.9925L40.8815 22.58C38.8058 24.0548 37.375 26.076 36.5884 28.3704L49.8317 32.9109ZM48.9904 33.9925C48.76 34.1562 48.5074 34.2758 48.2654 34.3479C48.0312 34.4176 47.8733 34.4233 47.8336 34.4233V20.4233C45.4548 20.4233 43.0261 21.0561 40.8815 22.58L48.9904 33.9925ZM47.8336 34.4233C47.8018 34.4233 47.6455 34.4187 47.4087 34.3478C47.1635 34.2744 46.9038 34.1512 46.6652 33.9795L54.8402 22.6142C52.678 21.059 50.2243 20.4233 47.8336 20.4233V34.4233ZM46.6652 33.9795C46.4237 33.8058 46.1435 33.5391 45.9014 33.1718C45.6597 32.8052 45.5293 32.4495 45.4676 32.1749L59.1272 29.1064C58.5345 26.4678 57.0519 24.2051 54.8402 22.6142L46.6652 33.9795ZM52.2974 37.6406H52.4679V23.6406H52.2974V37.6406ZM59.1466 32.7369C59.064 33.0001 58.9188 33.3009 58.6984 33.5882C58.4803 33.8724 58.2554 34.0568 58.0972 34.1605L50.4181 22.4545C48.2387 23.8842 46.5998 25.9614 45.7891 28.5444L59.1466 32.7369ZM58.1298 34.139C57.9533 34.2562 57.7681 34.3368 57.605 34.3827C57.4486 34.4267 57.3684 34.4233 57.4004 34.4233V20.4233C55.0045 20.4233 52.5689 21.0262 50.3855 22.476L58.1298 34.139ZM57.4004 34.4233C57.42 34.4233 57.2313 34.4247 56.9301 34.3056C56.6129 34.1802 56.3405 33.9876 56.1507 33.7923L66.1927 24.0373C63.7484 21.5211 60.5974 20.4233 57.4004 20.4233V34.4233ZM56.1682 33.8102C55.9125 33.5488 55.7473 33.2548 55.6638 33.0204C55.5897 32.8121 55.6206 32.7671 55.6206 32.9844H69.6206C69.6206 29.9093 68.7219 26.6222 66.1751 24.0193L56.1682 33.8102ZM55.6206 32.9844V44H69.6206V32.9844H55.6206ZM62.6206 37H57.411V51H62.6206V37ZM64.411 44V34.1776H50.411V44H64.411ZM64.411 34.1776C64.411 32.2122 63.8929 29.5604 61.7737 27.4052L51.7913 37.2212C50.5101 35.9183 50.411 34.5094 50.411 34.1776H64.411ZM61.814 27.4466C59.9275 25.4961 57.492 24.6634 55.1525 24.6634V38.6634C54.7229 38.6634 54.1296 38.5917 53.4683 38.3281C52.7921 38.0585 52.2081 37.6525 51.7509 37.1798L61.814 27.4466ZM55.1525 24.6634C52.7553 24.6634 50.1467 25.5309 48.2005 27.7457L58.7168 36.9873C58.2319 37.539 57.6012 38.0027 56.8747 38.3043C56.1722 38.5959 55.5576 38.6634 55.1525 38.6634V24.6634ZM48.1956 27.7512C46.3926 29.8073 45.8514 32.2277 45.8514 34.2308H59.8514C59.8514 34.6714 59.715 35.8489 58.7216 36.9817L48.1956 27.7512ZM45.8514 34.2308V44H59.8514V34.2308H45.8514ZM52.8514 37H47.8443V51H52.8514V37ZM54.8443 44V34.1243H40.8443V44H54.8443ZM54.8443 34.1243C54.8443 32.0706 54.2568 29.5926 52.3383 27.5418L42.1145 37.106C41.0198 35.9358 40.8443 34.6581 40.8443 34.1243H54.8443ZM52.3383 27.5418C50.4382 25.5107 47.9539 24.6634 45.5964 24.6634V38.6634C45.1672 38.6634 44.5608 38.5915 43.881 38.3161C43.1838 38.0335 42.5822 37.6059 42.1145 37.106L52.3383 27.5418ZM45.5964 24.6634C43.9592 24.6634 42.2323 25.0771 40.6501 26.0781L48.1351 37.9092C47.2489 38.4698 46.3245 38.6634 45.5964 38.6634V24.6634ZM40.7375 26.0237C39.1727 26.9817 38.0415 28.319 37.3113 29.7793L49.8333 36.0403C49.5008 36.7052 48.9165 37.4316 48.0477 37.9636L40.7375 26.0237ZM37.2669 29.8697C36.5276 31.403 36.2846 32.9534 36.2846 34.3161H50.2846C50.2846 34.5991 50.2334 35.2121 49.8776 35.9499L37.2669 29.8697ZM36.2846 34.3161V44H50.2846V34.3161H36.2846ZM43.2846 37H38.0751V51H43.2846V37ZM69.0659 43.2969L65.6843 49.4259L65.7052 49.4375L65.7262 49.4488L69.0659 43.2969ZM66.2108 40.3885L60.0065 43.63L60.0174 43.6509L60.0285 43.6717L66.2108 40.3885ZM66.2214 31.4503L72.4113 34.7191L72.4151 34.712L72.4188 34.7048L66.2214 31.4503ZM69.0446 28.4886L72.5518 34.5466L72.5651 34.539L72.5782 34.5312L69.0446 28.4886ZM76.5339 27.9666L78.9918 21.4123L78.9918 21.4123L76.5339 27.9666ZM80.6781 32.2067L74.122 34.6597L74.1247 34.667L74.1275 34.6744L80.6781 32.2067ZM81.264 37.0753V44.0753H88.264V37.0753H81.264ZM67.0417 37.0753H60.0417V44.0753H67.0417V37.0753ZM67.0417 34.0497V27.0497H60.0417V34.0497H67.0417ZM76.4167 34.0497V41.0497H83.507L83.4162 33.96L76.4167 34.0497ZM74.9679 31.5568L71.5267 37.6526L71.5847 37.6853L71.6433 37.717L74.9679 31.5568ZM71.8784 31.5781L75.2699 37.7017L75.3057 37.6818L75.3413 37.6616L71.8784 31.5781ZM70.7811 32.6328L76.7493 36.2907L76.7623 36.2696L76.7751 36.2483L70.7811 32.6328ZM70.3549 34.1349L63.3572 33.9578L63.3549 34.0463V34.1349H70.3549ZM70.7491 38.9716L64.5415 42.2066L64.5509 42.2247L64.5604 42.2427L70.7491 38.9716ZM71.8677 40.1328L68.3851 46.205L68.3851 46.205L71.8677 40.1328ZM74.8507 40.3565L77.1018 46.9847L77.1018 46.9847L74.8507 40.3565ZM75.8201 39.7919L80.5625 44.9407L80.5625 44.9407L75.8201 39.7919ZM76.4274 38.8757L76.63 31.8786L71.6182 31.7335L69.8678 36.4319L76.4274 38.8757ZM81.2108 39.0142L88.0934 40.2905L89.5837 32.2537L81.4133 32.0171L81.2108 39.0142ZM79.9004 41.8161L74.5621 37.288L74.5585 37.2923L79.9004 41.8161ZM77.269 43.6591L79.8614 50.1614L79.8797 50.1541L79.8979 50.1467L77.269 43.6591ZM73.4977 37.3089C72.7089 37.3089 72.4286 37.1574 72.4055 37.1449L65.7262 49.4488C68.189 50.7858 70.8632 51.3089 73.4977 51.3089V37.3089ZM72.4474 37.1678C72.4209 37.1532 72.4099 37.1449 72.4097 37.1447C72.4096 37.1446 72.4143 37.1482 72.4205 37.1546C72.4268 37.161 72.4287 37.164 72.4259 37.1602C72.4229 37.1561 72.4112 37.1395 72.393 37.1053L60.0285 43.6717C61.3279 46.1184 63.2478 48.0816 65.6843 49.4259L72.4474 37.1678ZM72.415 37.147C72.3801 37.0801 72.22 36.7385 72.22 35.8821H58.22C58.22 38.5058 58.7204 41.1684 60.0065 43.63L72.415 37.147ZM72.22 35.8821C72.22 35.1237 72.3648 34.8072 72.4113 34.7191L60.0315 28.1815C58.7428 30.6218 58.22 33.2598 58.22 35.8821H72.22ZM72.4188 34.7048C72.4441 34.6568 72.4636 34.6271 72.475 34.6111C72.4862 34.5953 72.4928 34.5882 72.4947 34.5863C72.4966 34.5843 72.499 34.5819 72.5045 34.5776C72.5101 34.5732 72.5245 34.5624 72.5518 34.5466L65.5373 22.4307C63.1518 23.8117 61.2907 25.7835 60.024 28.1958L72.4188 34.7048ZM72.5782 34.5312C72.5814 34.5294 72.6164 34.508 72.7146 34.4836C72.8185 34.4578 73.0167 34.4233 73.3379 34.4233V20.4233C70.6628 20.4233 67.9687 21.0087 65.5109 22.446L72.5782 34.5312ZM73.3379 34.4233C73.7707 34.4233 73.9908 34.4889 74.0761 34.5209L78.9918 21.4123C77.1452 20.7199 75.2346 20.4233 73.3379 20.4233V34.4233ZM74.076 34.5209C74.0958 34.5283 74.1059 34.5332 74.1082 34.5344C74.1103 34.5355 74.1071 34.534 74.1002 34.5295C74.0932 34.525 74.0853 34.5193 74.0775 34.513C74.0697 34.5067 74.0647 34.5019 74.0629 34.5001L84.012 24.6505C82.5744 23.1983 80.8731 22.1178 78.9918 21.4123L74.076 34.5209ZM74.0629 34.5001C74.0359 34.4728 74.0275 34.4573 74.0349 34.4693C74.0435 34.4831 74.0772 34.5401 74.122 34.6597L87.2342 29.7537C86.5371 27.8906 85.4874 26.1408 84.012 24.6505L74.0629 34.5001ZM74.1275 34.6744C74.1655 34.7754 74.264 35.1031 74.264 35.7756H88.264C88.264 33.7634 87.9719 31.7119 87.2287 29.739L74.1275 34.6744ZM74.264 35.7756V37.0753H88.264V35.7756H74.264ZM81.264 30.0753H67.0417V44.0753H81.264V30.0753ZM74.0417 37.0753V34.0497H60.0417V37.0753H74.0417ZM67.0417 41.0497H76.4167V27.0497H67.0417V41.0497ZM83.4162 33.96C83.395 32.312 82.9887 30.6001 82.051 29.0111L69.9941 36.1267C69.5677 35.4042 69.4242 34.6795 69.4173 34.1394L83.4162 33.96ZM82.051 29.0111C81.1404 27.4682 79.8485 26.2365 78.2924 25.3967L71.6433 37.717C70.9821 37.3601 70.3933 36.8032 69.9941 36.1267L82.051 29.0111ZM78.409 25.461C76.781 24.542 75.0569 24.1839 73.4444 24.1839V38.1839C72.9825 38.1839 72.274 38.0745 71.5267 37.6526L78.409 25.461ZM73.4444 24.1839C71.7679 24.1839 70.0321 24.5744 68.4155 25.4947L75.3413 37.6616C74.6479 38.0562 73.9561 38.1839 73.4444 38.1839V24.1839ZM68.4869 25.4546C66.9643 26.2979 65.6965 27.5096 64.787 29.0174L76.7751 36.2483C76.4054 36.8612 75.8692 37.3698 75.2699 37.7017L68.4869 25.4546ZM64.8129 28.9749C63.8445 30.5548 63.3998 32.2761 63.3572 33.9578L77.3527 34.3121C77.3385 34.8716 77.1778 35.5915 76.7493 36.2907L64.8129 28.9749ZM63.3549 34.1349V37.2138H77.3549V34.1349H63.3549ZM63.3549 37.2138C63.3549 38.8118 63.6745 40.543 64.5415 42.2066L76.9568 35.7366C77.2981 36.3916 77.3549 36.951 77.3549 37.2138H63.3549ZM64.5604 42.2427C65.4355 43.8983 66.7412 45.2622 68.3851 46.205L75.3503 34.0606C76.0284 34.4495 76.5883 35.0392 76.9378 35.7004L64.5604 42.2427ZM68.3851 46.205C70.121 47.2006 71.9475 47.5483 73.5936 47.5483V33.5483C73.9044 33.5483 74.5804 33.619 75.3503 34.0606L68.3851 46.205ZM73.5936 47.5483C74.6999 47.5483 75.8941 47.3949 77.1018 46.9847L72.5996 33.7284C73.0544 33.5739 73.4105 33.5483 73.5936 33.5483V47.5483ZM77.1018 46.9847C78.3246 46.5694 79.5162 45.9044 80.5625 44.9407L71.0778 34.6431C71.5843 34.1765 72.1296 33.888 72.5996 33.7284L77.1018 46.9847ZM80.5625 44.9407C81.6859 43.906 82.4887 42.657 82.987 41.3195L69.8678 36.4319C70.0962 35.8188 70.4942 35.1807 71.0778 34.6431L80.5625 44.9407ZM76.2248 45.8728L81.0082 46.0113L81.4133 32.0171L76.63 31.8786L76.2248 45.8728ZM74.3281 37.7379C74.3307 37.7241 74.346 37.6546 74.3932 37.5535C74.4412 37.4509 74.5021 37.3588 74.5621 37.288L85.2387 46.3441C86.7396 44.5746 87.6826 42.5059 88.0934 40.2905L74.3281 37.7379ZM74.5585 37.2923C74.591 37.2539 74.6238 37.2204 74.6547 37.1924C74.6854 37.1645 74.7103 37.1455 74.726 37.1345C74.7585 37.1118 74.7399 37.1311 74.64 37.1715L79.8979 50.1467C81.8914 49.3389 83.7489 48.1033 85.2423 46.3398L74.5585 37.2923ZM74.6766 37.1568C74.5745 37.1975 74.2274 37.3089 73.4977 37.3089V51.3089C75.6231 51.3089 77.7902 50.9871 79.8614 50.1614L74.6766 37.1568ZM94.397 33.1655H101.397V26.1655H94.397V33.1655ZM94.397 37.1818V44.1818H101.397V37.1818H94.397ZM84.2976 37.1818H77.2976V44.1818H84.2976V37.1818ZM84.2976 33.1655V26.1655H77.2976V33.1655H84.2976ZM87.397 33.1655V37.1818H101.397V33.1655H87.397ZM94.397 30.1818H84.2976V44.1818H94.397V30.1818ZM91.2976 37.1818V33.1655H77.2976V37.1818H91.2976ZM84.2976 40.1655H94.397V26.1655H84.2976V40.1655ZM107.312 27.6364H114.312V20.6364H107.312V27.6364ZM107.312 31.4716V38.4716H114.312V31.4716H107.312ZM96.9885 31.4716H89.9885V38.4716H96.9885V31.4716ZM96.9885 27.6364V20.6364H89.9885V27.6364H96.9885ZM99.1511 23.7159V16.7159H92.1511V23.7159H99.1511ZM104.361 23.7159H111.361V16.7159H104.361V23.7159ZM104.51 39.6321L98.2488 42.7626L98.3168 42.8986L98.3907 43.0316L104.51 39.6321ZM104.968 40.0476L102.21 46.4816L102.309 46.5237L102.408 46.5628L104.968 40.0476ZM106.31 40.1115L107.425 47.0222L107.513 47.008L107.6 46.9916L106.31 40.1115ZM106.822 40.005L113.673 38.5688L112.18 31.4498L105.124 33.214L106.822 40.005ZM107.61 43.7656L109.533 50.4963L115.798 48.7063L114.461 42.3294L107.61 43.7656ZM106.555 44.032L104.958 37.2166L104.946 37.2195L104.934 37.2223L106.555 44.032ZM104.947 44.2344L104.629 37.2416L104.621 37.2419L104.947 44.2344ZM101.804 43.8082L99.1949 50.3039L99.2269 50.3167L99.259 50.3293L101.804 43.8082ZM99.8116 42.1889L93.8659 45.8833L93.8788 45.9041L93.8918 45.9247L99.8116 42.1889ZM99.1511 39.4297L106.151 39.5194L106.151 39.4746V39.4297H99.1511ZM100.312 27.6364V31.4716H114.312V27.6364H100.312ZM107.312 24.4716H96.9885V38.4716H107.312V24.4716ZM103.988 31.4716V27.6364H89.9885V31.4716H103.988ZM96.9885 34.6364H107.312V20.6364H96.9885V34.6364ZM99.1511 30.7159H104.361V16.7159H99.1511V30.7159ZM97.3606 23.7159V38.8544H111.361V23.7159H97.3606ZM97.3606 38.8544C97.3606 39.8184 97.4981 41.2612 98.2488 42.7626L110.771 36.5016C111.323 37.6053 111.361 38.5297 111.361 38.8544H97.3606ZM98.3907 43.0316C99.2392 44.559 100.564 45.7762 102.21 46.4816L107.725 33.6136C108.974 34.1486 109.993 35.0887 110.629 36.2326L98.3907 43.0316ZM102.408 46.5628C103.625 47.0407 104.776 47.1648 105.682 47.1648V33.1648C106.034 33.1648 106.709 33.2107 107.527 33.5323L102.408 46.5628ZM105.682 47.1648C106.296 47.1648 106.88 47.1101 107.425 47.0222L105.196 33.2008C105.3 33.1839 105.465 33.1648 105.682 33.1648V47.1648ZM107.6 46.9916C107.86 46.9429 108.197 46.8766 108.519 46.796L105.124 33.214C105.16 33.2049 105.183 33.1997 105.189 33.1983C105.196 33.1968 105.194 33.1973 105.181 33.2C105.153 33.2058 105.102 33.2161 105.02 33.2314L107.6 46.9916ZM99.9705 41.4412L100.759 45.2018L114.461 42.3294L113.673 38.5688L99.9705 41.4412ZM105.687 37.035C105.599 37.06 105.375 37.1189 104.958 37.2166L108.153 50.8473C108.645 50.732 109.123 50.6133 109.533 50.4963L105.687 37.035ZM104.934 37.2223C104.995 37.2078 105.002 37.2098 104.944 37.2172C104.886 37.2245 104.783 37.2346 104.629 37.2416L105.264 51.2272C106.183 51.1854 107.18 51.0789 108.177 50.8416L104.934 37.2223ZM104.621 37.2419C104.369 37.2537 104.231 37.2401 104.185 37.2339C104.142 37.2281 104.208 37.2325 104.349 37.2872L99.259 50.3293C101.278 51.1173 103.356 51.3159 105.272 51.2268L104.621 37.2419ZM104.413 37.3126C104.572 37.3768 104.811 37.4987 105.071 37.7105C105.336 37.9257 105.561 38.1826 105.731 38.4531L93.8918 45.9247C95.2028 48.0022 97.0767 49.4531 99.1949 50.3039L104.413 37.3126ZM105.757 38.4945C106.184 39.1814 106.149 39.6695 106.151 39.5194L92.1517 39.34C92.1252 41.4057 92.53 43.7334 93.8659 45.8833L105.757 38.4945ZM106.151 39.4297V23.7159H92.1511V39.4297H106.151ZM113.027 44L106.253 45.7641L107.617 51H113.027V44ZM108.766 27.6364V20.6364H99.7094L101.992 29.4004L108.766 27.6364ZM113.997 27.6364L120.847 26.1953L119.677 20.6364H113.997V27.6364ZM116.202 38.1193L109.352 39.5603L110.521 45.1193H116.202V38.1193ZM116.34 38.1193V45.1193H121.937L123.169 39.6599L116.34 38.1193ZM118.705 27.6364V20.6364H113.109L111.877 26.0958L118.705 27.6364ZM123.808 27.6364L130.625 26.0455L129.363 20.6364H123.808V27.6364ZM126.237 38.0447L119.421 39.6356L120.683 45.0447H126.237V38.0447ZM126.376 38.0447V45.0447H132.082L133.232 39.4553L126.376 38.0447ZM128.517 27.6364V20.6364H122.811L121.661 26.2258L128.517 27.6364ZM133.748 27.6364L140.521 29.4046L142.81 20.6364H133.748V27.6364ZM129.476 44V51H134.883L136.249 45.7682L129.476 44ZM123.904 44L117.143 45.813L118.534 51H123.904V44ZM121.347 34.4652L128.109 32.6522L126.718 27.4652H121.347V34.4652ZM121.166 34.4652V27.4652H115.796L114.405 32.6522L121.166 34.4652ZM118.61 44V51H123.98L125.371 45.813L118.61 44ZM119.801 42.2359L115.54 25.8723L101.992 29.4004L106.253 45.7641L119.801 42.2359ZM108.766 34.6364H113.997V20.6364H108.766V34.6364ZM107.147 29.0774L109.352 39.5603L123.052 36.6783L120.847 26.1953L107.147 29.0774ZM116.202 45.1193H116.34V31.1193H116.202V45.1193ZM123.169 39.6599L125.534 29.1769L111.877 26.0958L109.512 36.5788L123.169 39.6599ZM118.705 34.6364H123.808V20.6364H118.705V34.6364ZM116.992 29.2272L119.421 39.6356L133.054 36.4539L130.625 26.0455L116.992 29.2272ZM126.237 45.0447H126.376V31.0447H126.237V45.0447ZM133.232 39.4553L135.374 29.0469L121.661 26.2258L119.519 36.6342L133.232 39.4553ZM128.517 34.6364H133.748V20.6364H128.517V34.6364ZM126.975 25.8682L122.703 42.2318L136.249 45.7682L140.521 29.4046L126.975 25.8682ZM129.476 37H123.904V51H129.476V37ZM130.665 42.187L128.109 32.6522L114.586 36.2782L117.143 45.813L130.665 42.187ZM121.347 27.4652H121.166V41.4652H121.347V27.4652ZM114.405 32.6522L111.848 42.187L125.371 45.813L127.928 36.2782L114.405 32.6522ZM118.61 37H113.027V51H118.61V37ZM135.839 44H128.839V51H135.839V44ZM135.839 27.6364V20.6364H128.839V27.6364H135.839ZM141.048 27.6364H148.048V20.6364H141.048V27.6364ZM141.048 44V51H148.048V44H141.048ZM136.563 25.005L131.789 30.1247L131.808 30.142L131.827 30.1593L136.563 25.005ZM136.563 21.4893L141.3 26.6436L141.318 26.6264L141.337 26.609L136.563 21.4893ZM140.335 21.4893L135.526 26.5765L135.562 26.6103L135.598 26.6436L140.335 21.4893ZM140.335 25.005L145.106 30.127L145.108 30.1247L140.335 25.005ZM142.839 44V27.6364H128.839V44H142.839ZM135.839 34.6364H141.048V20.6364H135.839V34.6364ZM134.048 27.6364V44H148.048V27.6364H134.048ZM141.048 37H135.839V51H141.048V37ZM138.449 18.7294C138.867 18.7294 139.386 18.8013 139.939 19.0139C140.496 19.2277 140.953 19.5324 141.3 19.8507L131.827 30.1593C133.679 31.8615 136.011 32.7294 138.449 32.7294V18.7294ZM141.337 19.8853C141.683 20.2078 142.073 20.6901 142.365 21.3452C142.66 22.0069 142.775 22.6662 142.775 23.2365H128.775C128.775 25.9592 129.913 28.3749 131.789 30.1247L141.337 19.8853ZM142.775 23.2365C142.775 23.8205 142.656 24.4939 142.352 25.1674C142.052 25.8334 141.651 26.3205 141.3 26.6436L131.827 16.335C129.935 18.0735 128.775 20.4942 128.775 23.2365H142.775ZM141.337 26.609C140.994 26.9287 140.536 27.24 139.971 27.46C139.409 27.6791 138.879 27.7543 138.449 27.7543V13.7543C135.981 13.7543 133.637 14.6473 131.789 16.3697L141.337 26.609ZM138.449 27.7543C138.031 27.7543 137.502 27.6821 136.932 27.46C136.358 27.2362 135.884 26.9152 135.526 26.5765L145.143 16.4022C143.275 14.6365 140.906 13.7543 138.449 13.7543V27.7543ZM135.598 26.6436C135.246 26.3205 134.846 25.8334 134.545 25.1674C134.241 24.4939 134.123 23.8205 134.123 23.2365H148.123C148.123 20.4942 146.963 18.0735 145.071 16.3351L135.598 26.6436ZM134.123 23.2365C134.123 22.6662 134.237 22.0069 134.532 21.3452C134.824 20.6901 135.215 20.2078 135.561 19.8853L145.108 30.1247C146.985 28.3749 148.123 25.9592 148.123 23.2365H134.123ZM135.563 19.8829C135.925 19.5456 136.398 19.2314 136.964 19.0139C137.525 18.7983 138.043 18.7294 138.449 18.7294V32.7294C140.875 32.7294 143.232 31.8722 145.106 30.127L135.563 19.8829ZM153.601 27.6364H160.601V20.6364H153.601V27.6364ZM153.601 31.4716V38.4716H160.601V31.4716H153.601ZM143.278 31.4716H136.278V38.4716H143.278V31.4716ZM143.278 27.6364V20.6364H136.278V27.6364H143.278ZM145.44 23.7159V16.7159H138.44V23.7159H145.44ZM150.65 23.7159H157.65V16.7159H150.65V23.7159ZM150.799 39.6321L144.538 42.7626L144.606 42.8986L144.68 43.0316L150.799 39.6321ZM151.257 40.0476L148.499 46.4816L148.598 46.5237L148.697 46.5628L151.257 40.0476ZM152.599 40.1115L153.714 47.0222L153.802 47.008L153.889 46.9916L152.599 40.1115ZM153.111 40.005L159.962 38.5688L158.469 31.4498L151.413 33.214L153.111 40.005ZM153.899 43.7656L155.822 50.4963L162.087 48.7063L160.75 42.3294L153.899 43.7656ZM152.844 44.032L151.247 37.2166L151.235 37.2195L151.223 37.2223L152.844 44.032ZM151.236 44.2344L150.918 37.2416L150.91 37.2419L151.236 44.2344ZM148.093 43.8082L145.484 50.3039L145.516 50.3167L145.548 50.3293L148.093 43.8082ZM146.101 42.1889L140.155 45.8833L140.168 45.9041L140.181 45.9247L146.101 42.1889ZM145.44 39.4297L152.44 39.5194L152.44 39.4746V39.4297H145.44ZM146.601 27.6364V31.4716H160.601V27.6364H146.601ZM153.601 24.4716H143.278V38.4716H153.601V24.4716ZM150.278 31.4716V27.6364H136.278V31.4716H150.278ZM143.278 34.6364H153.601V20.6364H143.278V34.6364ZM145.44 30.7159H150.65V16.7159H145.44V30.7159ZM143.65 23.7159V38.8544H157.65V23.7159H143.65ZM143.65 38.8544C143.65 39.8184 143.787 41.2612 144.538 42.7626L157.06 36.5016C157.612 37.6053 157.65 38.5297 157.65 38.8544H143.65ZM144.68 43.0316C145.528 44.559 146.853 45.7762 148.499 46.4816L154.014 33.6136C155.263 34.1486 156.282 35.0887 156.918 36.2326L144.68 43.0316ZM148.697 46.5628C149.914 47.0407 151.065 47.1648 151.971 47.1648V33.1648C152.323 33.1648 152.998 33.2107 153.816 33.5323L148.697 46.5628ZM151.971 47.1648C152.585 47.1648 153.169 47.1101 153.714 47.0222L151.485 33.2008C151.589 33.1839 151.755 33.1648 151.971 33.1648V47.1648ZM153.889 46.9916C154.149 46.9429 154.486 46.8766 154.808 46.796L151.413 33.214C151.449 33.2049 151.472 33.1997 151.478 33.1983C151.485 33.1968 151.483 33.1973 151.47 33.2C151.442 33.2058 151.391 33.2161 151.309 33.2314L153.889 46.9916ZM146.26 41.4412L147.048 45.2018L160.75 42.3294L159.962 38.5688L146.26 41.4412ZM151.976 37.035C151.888 37.06 151.664 37.1189 151.247 37.2166L154.442 50.8473C154.934 50.732 155.412 50.6133 155.822 50.4963L151.976 37.035ZM151.223 37.2223C151.284 37.2078 151.292 37.2098 151.233 37.2172C151.175 37.2245 151.073 37.2346 150.918 37.2416L151.553 51.2272C152.472 51.1854 153.469 51.0789 154.466 50.8416L151.223 37.2223ZM150.91 37.2419C150.658 37.2537 150.52 37.2401 150.474 37.2339C150.431 37.2281 150.497 37.2325 150.638 37.2872L145.548 50.3293C147.567 51.1173 149.645 51.3159 151.561 51.2268L150.91 37.2419ZM150.702 37.3126C150.862 37.3768 151.1 37.4987 151.36 37.7105C151.625 37.9257 151.85 38.1826 152.02 38.4531L140.181 45.9247C141.492 48.0022 143.366 49.4531 145.484 50.3039L150.702 37.3126ZM152.046 38.4945C152.473 39.1814 152.438 39.6695 152.44 39.5194L138.441 39.34C138.414 41.4057 138.819 43.7334 140.155 45.8833L152.046 38.4945ZM152.44 39.4297V23.7159H138.44V39.4297H152.44ZM159.279 43.2436L155.776 49.304L155.783 49.3084L155.791 49.3127L159.279 43.2436ZM156.445 40.282L150.233 43.5092L150.237 43.5164L150.241 43.5235L156.445 40.282ZM156.445 31.4609L150.248 28.2064L150.244 28.2129L150.241 28.2194L156.445 31.4609ZM159.29 28.4886L155.802 22.4195L155.794 22.4239L155.786 22.4283L159.29 28.4886ZM167.663 28.2436L164.597 34.5361L164.604 34.5399L164.612 34.5437L167.663 28.2436ZM170.305 30.5661L164.386 34.3024L164.401 34.327L164.417 34.3514L170.305 30.5661ZM171.317 34.071V41.071H178.505L178.315 33.8859L171.317 34.071ZM166.449 34.071L159.497 34.8957L160.23 41.071H166.449V34.071ZM165.596 32.1001L160.572 36.9743L160.591 36.9935L160.61 37.0125L165.596 32.1001ZM162.198 31.8977L166.341 37.5398L166.37 37.5189L166.398 37.4977L162.198 31.8977ZM161.133 33.3892L154.605 30.8622L154.597 30.8812L154.59 30.9002L161.133 33.3892ZM161.133 38.2685L154.573 40.711L154.588 40.7533L154.605 40.7954L161.133 38.2685ZM162.198 39.7706L157.998 45.3706L158.026 45.3918L158.055 45.4126L162.198 39.7706ZM165.064 39.9624L161.704 33.8215L161.679 33.8351L161.654 33.8488L165.064 39.9624ZM165.991 39.0568L171.974 42.6897L171.988 42.6663L172.002 42.6428L165.991 39.0568ZM166.449 37.5866V30.5866H160.183L159.492 36.8136L166.449 37.5866ZM171.317 37.5866L178.313 37.8444L178.58 30.5866H171.317V37.5866ZM170.305 41.1236L164.355 37.4362L164.346 37.4514L164.336 37.4666L170.305 41.1236ZM167.695 43.478L170.81 49.7469L170.818 49.743L170.826 49.739L167.695 43.478ZM163.721 37.3089C163.337 37.3089 163.089 37.2693 162.949 37.2356C162.879 37.2189 162.833 37.2031 162.807 37.1929C162.782 37.1828 162.77 37.176 162.767 37.1745L155.791 49.3127C158.291 50.7495 161.029 51.3089 163.721 51.3089V37.3089ZM162.782 37.1832C162.748 37.1633 162.728 37.1491 162.719 37.1423C162.711 37.1357 162.708 37.1322 162.707 37.1311C162.706 37.1301 162.701 37.1256 162.694 37.1146C162.686 37.1034 162.67 37.0802 162.649 37.0404L150.241 43.5235C151.513 45.9582 153.392 47.9258 155.776 49.304L162.782 37.1832ZM162.657 37.0547C162.594 36.9329 162.454 36.6027 162.454 35.8714H148.454C148.454 38.4783 148.976 41.0884 150.233 43.5092L162.657 37.0547ZM162.454 35.8714C162.454 35.1266 162.596 34.8046 162.649 34.7025L150.241 28.2194C148.973 30.6457 148.454 33.264 148.454 35.8714H162.454ZM162.643 34.7155C162.687 34.6315 162.713 34.6052 162.714 34.6042C162.717 34.6012 162.722 34.5967 162.731 34.5897C162.74 34.5825 162.759 34.5684 162.793 34.549L155.786 22.4283C153.398 23.8087 151.523 25.7787 150.248 28.2064L162.643 34.7155ZM162.778 34.5577C162.782 34.5552 162.832 34.5262 162.962 34.4949C163.098 34.4621 163.338 34.4233 163.711 34.4233V20.4233C161.021 20.4233 158.293 20.9875 155.802 22.4195L162.778 34.5577ZM163.711 34.4233C164.047 34.4233 164.274 34.4538 164.411 34.4823C164.479 34.4964 164.526 34.5101 164.554 34.5197C164.582 34.5291 164.595 34.5354 164.597 34.5361L170.73 21.9511C168.471 20.8504 166.064 20.4233 163.711 20.4233V34.4233ZM164.612 34.5437C164.648 34.5612 164.615 34.5497 164.549 34.4919C164.481 34.4322 164.424 34.3625 164.386 34.3024L176.225 26.8297C174.852 24.6557 172.947 23.0248 170.714 21.9435L164.612 34.5437ZM164.417 34.3514C164.39 34.3098 164.367 34.2669 164.348 34.2252C164.33 34.1838 164.318 34.1507 164.312 34.13C164.3 34.0866 164.316 34.1187 164.32 34.2561L178.315 33.8859C178.25 31.4425 177.615 28.9916 176.193 26.7807L164.417 34.3514ZM171.317 27.071H166.449V41.071H171.317V27.071ZM173.4 33.2463C173.166 31.2783 172.402 29.034 170.583 27.1877L160.61 37.0125C159.728 36.118 159.532 35.1876 159.497 34.8957L173.4 33.2463ZM170.621 27.226C168.67 25.2158 166.165 24.3864 163.785 24.3864V38.3864C163.409 38.3864 162.859 38.3248 162.231 38.0773C161.586 37.8231 161.019 37.4351 160.572 36.9743L170.621 27.226ZM163.785 24.3864C161.768 24.3864 159.742 24.9893 157.998 26.2977L166.398 37.4977C166.018 37.7825 165.573 38.019 165.082 38.177C164.596 38.3336 164.15 38.3864 163.785 38.3864V24.3864ZM158.055 26.2557C156.28 27.559 155.219 29.2744 154.605 30.8622L167.661 35.9162C167.557 36.183 167.207 36.904 166.341 37.5398L158.055 26.2557ZM154.59 30.9002C153.948 32.5888 153.76 34.3034 153.76 35.8182H167.76C167.76 35.7262 167.763 35.6581 167.766 35.6119C167.769 35.5656 167.772 35.5454 167.772 35.5486C167.771 35.5518 167.767 35.5827 167.753 35.6373C167.739 35.692 167.715 35.7741 167.675 35.8782L154.59 30.9002ZM153.76 35.8182C153.76 37.3406 153.95 39.0385 154.573 40.711L167.693 35.8259C167.727 35.9173 167.747 35.9884 167.759 36.0344C167.77 36.0803 167.774 36.104 167.773 36.1021C167.773 36.1002 167.769 36.0763 167.766 36.0278C167.763 35.9794 167.76 35.9101 167.76 35.8182H153.76ZM154.605 40.7954C155.217 42.3779 156.264 44.0704 157.998 45.3706L166.398 34.1706C167.222 34.7889 167.559 35.4801 167.661 35.7415L154.605 40.7954ZM158.055 45.4126C159.797 46.6924 161.803 47.2713 163.785 47.2713V33.2713C164.135 33.2713 164.568 33.3209 165.042 33.4704C165.52 33.6214 165.961 33.8492 166.341 34.1286L158.055 45.4126ZM163.785 47.2713C165.29 47.2713 166.921 46.9415 168.473 46.0759L161.654 33.8488C162.468 33.3952 163.247 33.2713 163.785 33.2713V47.2713ZM168.424 46.1032C169.97 45.257 171.149 44.0479 171.974 42.6897L160.007 35.424C160.349 34.8612 160.91 34.2558 161.704 33.8215L168.424 46.1032ZM172.002 42.6428C172.859 41.206 173.256 39.708 173.406 38.3597L159.492 36.8136C159.513 36.6158 159.605 36.098 159.979 35.4709L172.002 42.6428ZM166.449 44.5866H171.317V30.5866H166.449V44.5866ZM164.322 37.3289C164.316 37.4953 164.296 37.5626 164.297 37.5572C164.298 37.5553 164.302 37.5405 164.313 37.5164C164.323 37.4921 164.338 37.4645 164.355 37.4362L176.255 44.8109C177.605 42.6334 178.224 40.2379 178.313 37.8444L164.322 37.3289ZM164.336 37.4666C164.375 37.404 164.433 37.3323 164.501 37.2708C164.567 37.2113 164.601 37.199 164.565 37.217L170.826 49.739C173.044 48.6296 174.93 46.9742 176.274 44.7805L164.336 37.4666ZM164.581 37.209C164.632 37.1835 164.421 37.3089 163.721 37.3089V51.3089C166.09 51.3089 168.528 50.8804 170.81 49.7469L164.581 37.209ZM179.193 34.6676L172.193 34.5881L172.193 34.6278V34.6676H179.193ZM179.193 44V51H186.193V44H179.193ZM173.983 44H166.983V51H173.983V44ZM173.983 22.1818V15.1818H166.983V22.1818H173.983ZM179.022 22.1818H186.022V15.1818H179.022V22.1818ZM179.022 30.6406H172.022V37.6406H179.022V30.6406ZM179.203 30.6406V37.6406H184.095L185.777 33.0477L179.203 30.6406ZM181.015 28.2756L177.109 22.4663L177.098 22.4739L177.086 22.4816L181.015 28.2756ZM187.119 28.1903L183.517 34.1928L183.536 34.2039L183.554 34.2148L187.119 28.1903ZM189.1 30.3317L182.859 33.5005L182.868 33.5196L182.878 33.5385L189.1 30.3317ZM189.804 33.5703L182.804 33.5301L182.804 33.5502V33.5703H189.804ZM189.804 44V51H196.804V44H189.804ZM184.594 44H177.594V51H184.594V44ZM184.594 34.593L177.594 34.5384L177.594 34.5657V34.593H184.594ZM183.912 32.4624L178.716 37.1531L178.716 37.1531L183.912 32.4624ZM180.514 32.0575L183.976 38.1417L183.992 38.1322L184.009 38.1225L180.514 32.0575ZM179.544 33.0696L173.365 29.7807L173.344 29.8197L173.324 29.8591L179.544 33.0696ZM172.193 34.6676V44H186.193V34.6676H172.193ZM179.193 37H173.983V51H179.193V37ZM180.983 44V22.1818H166.983V44H180.983ZM173.983 29.1818H179.022V15.1818H173.983V29.1818ZM172.022 22.1818V30.6406H186.022V22.1818H172.022ZM179.022 37.6406H179.203V23.6406H179.022V37.6406ZM185.777 33.0477C185.738 33.1534 185.653 33.3376 185.491 33.5488C185.327 33.7634 185.133 33.9402 184.943 34.0695L177.086 22.4816C174.957 23.925 173.472 25.9355 172.63 28.2336L185.777 33.0477ZM184.92 34.0849C184.682 34.2446 184.454 34.338 184.279 34.386C184.114 34.4314 184.045 34.4233 184.115 34.4233V20.4233C181.784 20.4233 179.323 20.9783 177.109 22.4663L184.92 34.0849ZM184.115 34.4233C184.171 34.4233 184.122 34.4294 183.997 34.3975C183.866 34.3641 183.696 34.3001 183.517 34.1928L190.72 22.1879C188.618 20.9267 186.331 20.4233 184.115 20.4233V34.4233ZM183.554 34.2148C183.408 34.1283 183.254 34.0077 183.116 33.8582C182.979 33.7104 182.898 33.5786 182.859 33.5005L195.342 27.1628C194.3 25.1094 192.735 23.3798 190.683 22.1659L183.554 34.2148ZM182.878 33.5385C182.849 33.4827 182.829 33.433 182.815 33.393C182.801 33.3532 182.794 33.3273 182.793 33.3189C182.789 33.3026 182.805 33.3653 182.804 33.5301L196.804 33.6105C196.816 31.4588 196.406 29.2258 195.323 27.1248L182.878 33.5385ZM182.804 33.5703V44H196.804V33.5703H182.804ZM189.804 37H184.594V51H189.804V37ZM191.594 44V34.593H177.594V44H191.594ZM191.594 34.6477C191.61 32.5599 191.078 29.9539 189.108 27.7716L178.716 37.1531C177.67 35.9935 177.592 34.808 177.594 34.5384L191.594 34.6477ZM189.108 27.7716C187.037 25.4773 184.317 24.6953 181.963 24.6953V38.6953C181.676 38.6953 181.153 38.6516 180.516 38.401C179.848 38.1384 179.221 37.7118 178.716 37.1531L189.108 27.7716ZM181.963 24.6953C180.352 24.6953 178.634 25.0617 177.019 25.9925L184.009 38.1225C183.232 38.5704 182.479 38.6953 181.963 38.6953V24.6953ZM177.052 25.9734C175.426 26.8985 174.188 28.2345 173.365 29.7807L185.724 36.3585C185.369 37.024 184.778 37.6853 183.976 38.1417L177.052 25.9734ZM173.324 29.8591C172.483 31.4879 172.21 33.1506 172.193 34.5881L186.192 34.7472C186.19 34.9347 186.151 35.532 185.765 36.2801L173.324 29.8591Z" fill="#6C1AE7" mask="url(#path-1-outside-1_4_116)"/>
<g clip-path="url(#clip0_4_116)">
<path d="M208.5 40.3333C219.316 40.3333 228.083 32.1252 228.083 22C228.083 11.8748 219.316 3.66666 208.5 3.66666C197.684 3.66666 188.917 11.8748 188.917 22C188.917 32.1252 197.684 40.3333 208.5 40.3333Z" fill="white" stroke="#6C1AE7" stroke-width="7" stroke-linecap="round" stroke-linejoin="round"/>
<path d="M208.5 11V22H199.688" stroke="#6C1AE7" stroke-width="6" stroke-linecap="round" stroke-linejoin="round"/>
</g>
<defs>
<clipPath id="clip0_4_116">
<rect width="47" height="44" fill="white" transform="translate(185)"/>
</clipPath>
</defs>
</svg>
