<svg width="224" height="58" viewBox="0 0 224 58" fill="none" xmlns="http://www.w3.org/2000/svg">
<mask id="path-1-outside-1_4_116" maskUnits="userSpaceOnUse" x="7" y="2.67743" width="160" height="39" fill="black">
<rect fill="white" x="7" y="2.67743" width="160" height="39"/>
<path d="M32.9379 11.8592V33.6774H28.4635L19.781 21.0851H19.6425V33.6774H14.3691V11.8592H18.9074L27.4941 24.4303H27.6752V11.8592H32.9379ZM36.2538 33.6774V11.8592H51.1473V16.1419H41.5273V20.6163H50.1991V24.9097H41.5273V33.6774H36.2538ZM64.2749 22.8429V26.8592H54.1755V22.8429H64.2749ZM77.1895 17.3138V21.149H66.8664V17.3138H77.1895ZM69.029 13.3933H74.2385V28.5318C74.2385 28.8514 74.2883 29.1107 74.3877 29.3095C74.4942 29.5013 74.6469 29.6398 74.8458 29.725C75.0447 29.8031 75.2826 29.8422 75.5596 29.8422C75.7584 29.8422 75.968 29.8244 76.1881 29.7889C76.4154 29.7463 76.5858 29.7108 76.6995 29.6824L77.4878 33.4431C77.2393 33.5141 76.8877 33.6029 76.4332 33.7094C75.9857 33.8159 75.4495 33.8834 74.8245 33.9118C73.6029 33.9686 72.5553 33.8266 71.6817 33.4857C70.8153 33.1377 70.1512 32.5979 69.6895 31.8663C69.235 31.1348 69.0148 30.2151 69.029 29.1071V13.3933ZM82.9051 33.6774L78.6437 17.3138H83.8746L86.0798 27.7967H86.2183L88.5834 17.3138H93.6863L96.1153 27.7222H96.2538L98.3952 17.3138H103.626L99.354 33.6774H93.7822L91.2254 24.1426H91.0443L88.4875 33.6774H82.9051ZM105.717 33.6774V17.3138H110.926V33.6774H105.717ZM108.327 15.4068C107.595 15.4068 106.967 15.1654 106.441 14.6824C105.916 14.1923 105.653 13.6029 105.653 12.9139C105.653 12.2321 105.916 11.6497 106.441 11.1668C106.967 10.6767 107.595 10.4317 108.327 10.4317C109.065 10.4317 109.694 10.6767 110.212 11.1668C110.738 11.6497 111.001 12.2321 111.001 12.9139C111.001 13.6029 110.738 14.1923 110.212 14.6824C109.694 15.1654 109.065 15.4068 108.327 15.4068ZM123.479 17.3138V21.149H113.155V17.3138H123.479ZM115.318 13.3933H120.528V28.5318C120.528 28.8514 120.577 29.1107 120.677 29.3095C120.783 29.5013 120.936 29.6398 121.135 29.725C121.334 29.8031 121.572 29.8422 121.849 29.8422C122.047 29.8422 122.257 29.8244 122.477 29.7889C122.704 29.7463 122.875 29.7108 122.989 29.6824L123.777 33.4431C123.528 33.5141 123.177 33.6029 122.722 33.7094C122.275 33.8159 121.739 33.8834 121.114 33.9118C119.892 33.9686 118.844 33.8266 117.971 33.4857C117.104 33.1377 116.44 32.5979 115.979 31.8663C115.524 31.1348 115.304 30.2151 115.318 29.1071V13.3933ZM133.599 33.9864C131.873 33.9864 130.393 33.6313 129.157 32.921C127.928 32.2108 126.984 31.2236 126.323 29.9594C125.663 28.6881 125.332 27.2179 125.332 25.5489C125.332 23.8727 125.663 22.4026 126.323 21.1384C126.991 19.8671 127.939 18.8763 129.168 18.1661C130.403 17.4558 131.877 17.1007 133.589 17.1007C135.101 17.1007 136.419 17.3742 137.541 17.921C138.67 18.4679 139.551 19.2421 140.183 20.2435C140.822 21.2378 141.16 22.4061 141.195 23.7485H136.327C136.227 22.9104 135.943 22.2534 135.474 21.7776C135.013 21.3017 134.409 21.0638 133.663 21.0638C133.06 21.0638 132.53 21.2342 132.076 21.5752C131.621 21.909 131.266 22.4061 131.011 23.0666C130.762 23.72 130.638 24.5297 130.638 25.4956C130.638 26.4615 130.762 27.2783 131.011 27.9459C131.266 28.6064 131.621 29.1071 132.076 29.448C132.53 29.7818 133.06 29.9487 133.663 29.9487C134.146 29.9487 134.572 29.8458 134.942 29.6398C135.318 29.4338 135.627 29.132 135.869 28.7342C136.11 28.3294 136.263 27.8394 136.327 27.2641H141.195C141.146 28.6135 140.808 29.7925 140.183 30.801C139.565 31.8095 138.695 32.5943 137.573 33.1554C136.458 33.7094 135.133 33.9864 133.599 33.9864ZM149.071 24.345V33.6774H143.861V11.8592H148.9V20.3181H149.081C149.451 19.3095 150.054 18.5212 150.892 17.953C151.738 17.3848 152.771 17.1007 153.993 17.1007C155.143 17.1007 156.145 17.3564 156.997 17.8678C157.849 18.372 158.51 19.0858 158.978 20.0091C159.454 20.9324 159.689 22.0119 159.682 23.2477V33.6774H154.472V24.2705C154.479 23.3614 154.252 22.6512 153.79 22.1398C153.329 21.6284 152.679 21.3727 151.841 21.3727C151.294 21.3727 150.811 21.4935 150.392 21.735C149.98 21.9693 149.657 22.3067 149.422 22.747C149.195 23.1874 149.078 23.72 149.071 24.345Z"/>
</mask>
<path d="M32.9379 11.8592V33.6774H28.4635L19.781 21.0851H19.6425V33.6774H14.3691V11.8592H18.9074L27.4941 24.4303H27.6752V11.8592H32.9379ZM36.2538 33.6774V11.8592H51.1473V16.1419H41.5273V20.6163H50.1991V24.9097H41.5273V33.6774H36.2538ZM64.2749 22.8429V26.8592H54.1755V22.8429H64.2749ZM77.1895 17.3138V21.149H66.8664V17.3138H77.1895ZM69.029 13.3933H74.2385V28.5318C74.2385 28.8514 74.2883 29.1107 74.3877 29.3095C74.4942 29.5013 74.6469 29.6398 74.8458 29.725C75.0447 29.8031 75.2826 29.8422 75.5596 29.8422C75.7584 29.8422 75.968 29.8244 76.1881 29.7889C76.4154 29.7463 76.5858 29.7108 76.6995 29.6824L77.4878 33.4431C77.2393 33.5141 76.8877 33.6029 76.4332 33.7094C75.9857 33.8159 75.4495 33.8834 74.8245 33.9118C73.6029 33.9686 72.5553 33.8266 71.6817 33.4857C70.8153 33.1377 70.1512 32.5979 69.6895 31.8663C69.235 31.1348 69.0148 30.2151 69.029 29.1071V13.3933ZM82.9051 33.6774L78.6437 17.3138H83.8746L86.0798 27.7967H86.2183L88.5834 17.3138H93.6863L96.1153 27.7222H96.2538L98.3952 17.3138H103.626L99.354 33.6774H93.7822L91.2254 24.1426H91.0443L88.4875 33.6774H82.9051ZM105.717 33.6774V17.3138H110.926V33.6774H105.717ZM108.327 15.4068C107.595 15.4068 106.967 15.1654 106.441 14.6824C105.916 14.1923 105.653 13.6029 105.653 12.9139C105.653 12.2321 105.916 11.6497 106.441 11.1668C106.967 10.6767 107.595 10.4317 108.327 10.4317C109.065 10.4317 109.694 10.6767 110.212 11.1668C110.738 11.6497 111.001 12.2321 111.001 12.9139C111.001 13.6029 110.738 14.1923 110.212 14.6824C109.694 15.1654 109.065 15.4068 108.327 15.4068ZM123.479 17.3138V21.149H113.155V17.3138H123.479ZM115.318 13.3933H120.528V28.5318C120.528 28.8514 120.577 29.1107 120.677 29.3095C120.783 29.5013 120.936 29.6398 121.135 29.725C121.334 29.8031 121.572 29.8422 121.849 29.8422C122.047 29.8422 122.257 29.8244 122.477 29.7889C122.704 29.7463 122.875 29.7108 122.989 29.6824L123.777 33.4431C123.528 33.5141 123.177 33.6029 122.722 33.7094C122.275 33.8159 121.739 33.8834 121.114 33.9118C119.892 33.9686 118.844 33.8266 117.971 33.4857C117.104 33.1377 116.44 32.5979 115.979 31.8663C115.524 31.1348 115.304 30.2151 115.318 29.1071V13.3933ZM133.599 33.9864C131.873 33.9864 130.393 33.6313 129.157 32.921C127.928 32.2108 126.984 31.2236 126.323 29.9594C125.663 28.6881 125.332 27.2179 125.332 25.5489C125.332 23.8727 125.663 22.4026 126.323 21.1384C126.991 19.8671 127.939 18.8763 129.168 18.1661C130.403 17.4558 131.877 17.1007 133.589 17.1007C135.101 17.1007 136.419 17.3742 137.541 17.921C138.67 18.4679 139.551 19.2421 140.183 20.2435C140.822 21.2378 141.16 22.4061 141.195 23.7485H136.327C136.227 22.9104 135.943 22.2534 135.474 21.7776C135.013 21.3017 134.409 21.0638 133.663 21.0638C133.06 21.0638 132.53 21.2342 132.076 21.5752C131.621 21.909 131.266 22.4061 131.011 23.0666C130.762 23.72 130.638 24.5297 130.638 25.4956C130.638 26.4615 130.762 27.2783 131.011 27.9459C131.266 28.6064 131.621 29.1071 132.076 29.448C132.53 29.7818 133.06 29.9487 133.663 29.9487C134.146 29.9487 134.572 29.8458 134.942 29.6398C135.318 29.4338 135.627 29.132 135.869 28.7342C136.11 28.3294 136.263 27.8394 136.327 27.2641H141.195C141.146 28.6135 140.808 29.7925 140.183 30.801C139.565 31.8095 138.695 32.5943 137.573 33.1554C136.458 33.7094 135.133 33.9864 133.599 33.9864ZM149.071 24.345V33.6774H143.861V11.8592H148.9V20.3181H149.081C149.451 19.3095 150.054 18.5212 150.892 17.953C151.738 17.3848 152.771 17.1007 153.993 17.1007C155.143 17.1007 156.145 17.3564 156.997 17.8678C157.849 18.372 158.51 19.0858 158.978 20.0091C159.454 20.9324 159.689 22.0119 159.682 23.2477V33.6774H154.472V24.2705C154.479 23.3614 154.252 22.6512 153.79 22.1398C153.329 21.6284 152.679 21.3727 151.841 21.3727C151.294 21.3727 150.811 21.4935 150.392 21.735C149.98 21.9693 149.657 22.3067 149.422 22.747C149.195 23.1874 149.078 23.72 149.071 24.345Z" fill="white"/>
<path d="M32.9379 11.8592H39.9379V4.85925H32.9379V11.8592ZM32.9379 33.6774V40.6774H39.9379V33.6774H32.9379ZM28.4635 33.6774L22.7006 37.651L24.7874 40.6774H28.4635V33.6774ZM19.781 21.0851L25.5439 17.1115L23.4571 14.0851H19.781V21.0851ZM19.6425 21.0851V14.0851H12.6425V21.0851H19.6425ZM19.6425 33.6774V40.6774H26.6425V33.6774H19.6425ZM14.3691 33.6774H7.36905V40.6774H14.3691V33.6774ZM14.3691 11.8592V4.85925H7.36905V11.8592H14.3691ZM18.9074 11.8592L24.6877 7.91103L22.6032 4.85925H18.9074V11.8592ZM27.4941 24.4303L21.7138 28.3785L23.7983 31.4303H27.4941V24.4303ZM27.6752 24.4303V31.4303H34.6752V24.4303H27.6752ZM27.6752 11.8592V4.85925H20.6752V11.8592H27.6752ZM25.9379 11.8592V33.6774H39.9379V11.8592H25.9379ZM32.9379 26.6774H28.4635V40.6774H32.9379V26.6774ZM34.2264 29.7039L25.5439 17.1115L14.0181 25.0587L22.7006 37.651L34.2264 29.7039ZM19.781 14.0851H19.6425V28.0851H19.781V14.0851ZM12.6425 21.0851V33.6774H26.6425V21.0851H12.6425ZM19.6425 26.6774H14.3691V40.6774H19.6425V26.6774ZM21.3691 33.6774V11.8592H7.36905V33.6774H21.3691ZM14.3691 18.8592H18.9074V4.85925H14.3691V18.8592ZM13.1271 15.8075L21.7138 28.3785L33.2743 20.482L24.6877 7.91103L13.1271 15.8075ZM27.4941 31.4303H27.6752V17.4303H27.4941V31.4303ZM34.6752 24.4303V11.8592H20.6752V24.4303H34.6752ZM27.6752 18.8592H32.9379V4.85925H27.6752V18.8592ZM36.2538 33.6774H29.2538V40.6774H36.2538V33.6774ZM36.2538 11.8592V4.85925H29.2538V11.8592H36.2538ZM51.1473 11.8592H58.1473V4.85925H51.1473V11.8592ZM51.1473 16.1419V23.1419H58.1473V16.1419H51.1473ZM41.5273 16.1419V9.14192H34.5273V16.1419H41.5273ZM41.5273 20.6163H34.5273V27.6163H41.5273V20.6163ZM50.1991 20.6163H57.1991V13.6163H50.1991V20.6163ZM50.1991 24.9097V31.9097H57.1991V24.9097H50.1991ZM41.5273 24.9097V17.9097H34.5273V24.9097H41.5273ZM41.5273 33.6774V40.6774H48.5273V33.6774H41.5273ZM43.2538 33.6774V11.8592H29.2538V33.6774H43.2538ZM36.2538 18.8592H51.1473V4.85925H36.2538V18.8592ZM44.1473 11.8592V16.1419H58.1473V11.8592H44.1473ZM51.1473 9.14192H41.5273V23.1419H51.1473V9.14192ZM34.5273 16.1419V20.6163H48.5273V16.1419H34.5273ZM41.5273 27.6163H50.1991V13.6163H41.5273V27.6163ZM43.1991 20.6163V24.9097H57.1991V20.6163H43.1991ZM50.1991 17.9097H41.5273V31.9097H50.1991V17.9097ZM34.5273 24.9097V33.6774H48.5273V24.9097H34.5273ZM41.5273 26.6774H36.2538V40.6774H41.5273V26.6774ZM64.2749 22.8429H71.2749V15.8429H64.2749V22.8429ZM64.2749 26.8592V33.8592H71.2749V26.8592H64.2749ZM54.1755 26.8592H47.1755V33.8592H54.1755V26.8592ZM54.1755 22.8429V15.8429H47.1755V22.8429H54.1755ZM57.2749 22.8429V26.8592H71.2749V22.8429H57.2749ZM64.2749 19.8592H54.1755V33.8592H64.2749V19.8592ZM61.1755 26.8592V22.8429H47.1755V26.8592H61.1755ZM54.1755 29.8429H64.2749V15.8429H54.1755V29.8429ZM77.1895 17.3138H84.1895V10.3138H77.1895V17.3138ZM77.1895 21.149V28.149H84.1895V21.149H77.1895ZM66.8664 21.149H59.8664V28.149H66.8664V21.149ZM66.8664 17.3138V10.3138H59.8664V17.3138H66.8664ZM69.029 13.3933V6.39334H62.029V13.3933H69.029ZM74.2385 13.3933H81.2385V6.39334H74.2385V13.3933ZM74.3877 29.3095L68.1267 32.44L68.1947 32.5761L68.2686 32.709L74.3877 29.3095ZM74.8458 29.725L72.0884 36.159L72.1867 36.2012L72.2862 36.2403L74.8458 29.725ZM76.1881 29.7889L77.3028 36.6996L77.3906 36.6854L77.4781 36.669L76.1881 29.7889ZM76.6995 29.6824L83.5506 28.2462L82.0582 21.1273L75.0017 22.8914L76.6995 29.6824ZM77.4878 33.4431L79.4109 40.1737L85.6757 38.3838L84.3389 32.0068L77.4878 33.4431ZM76.4332 33.7094L74.8358 26.8941L74.8238 26.8969L74.8118 26.8997L76.4332 33.7094ZM74.8245 33.9118L74.5066 26.919L74.4993 26.9194L74.8245 33.9118ZM71.6817 33.4857L69.0728 39.9813L69.1048 39.9942L69.1369 40.0067L71.6817 33.4857ZM69.6895 31.8663L63.7438 35.5608L63.7567 35.5815L63.7698 35.6021L69.6895 31.8663ZM69.029 29.1071L76.0285 29.1969L76.029 29.152V29.1071H69.029ZM70.1895 17.3138V21.149H84.1895V17.3138H70.1895ZM77.1895 14.149H66.8664V28.149H77.1895V14.149ZM73.8664 21.149V17.3138H59.8664V21.149H73.8664ZM66.8664 24.3138H77.1895V10.3138H66.8664V24.3138ZM69.029 20.3933H74.2385V6.39334H69.029V20.3933ZM67.2385 13.3933V28.5318H81.2385V13.3933H67.2385ZM67.2385 28.5318C67.2385 29.4958 67.376 30.9387 68.1267 32.44L80.6487 26.179C81.2005 27.2827 81.2385 28.2071 81.2385 28.5318H67.2385ZM68.2686 32.709C69.1171 34.2364 70.4423 35.4536 72.0884 36.159L77.6032 23.291C78.8515 23.826 79.8713 24.7662 80.5068 25.91L68.2686 32.709ZM72.2862 36.2403C73.5025 36.7181 74.6537 36.8422 75.5596 36.8422V22.8422C75.9115 22.8422 76.5868 22.8882 77.4054 23.2098L72.2862 36.2403ZM75.5596 36.8422C76.1735 36.8422 76.7576 36.7875 77.3028 36.6996L75.0735 22.8782C75.1783 22.8613 75.3434 22.8422 75.5596 22.8422V36.8422ZM77.4781 36.669C77.7379 36.6203 78.0746 36.5541 78.3973 36.4734L75.0017 22.8914C75.0379 22.8824 75.061 22.8771 75.067 22.8758C75.0739 22.8742 75.0718 22.8748 75.0587 22.8775C75.0313 22.8832 74.9796 22.8935 74.8981 22.9088L77.4781 36.669ZM69.8484 31.1186L70.6368 34.8793L84.3389 32.0068L83.5506 28.2462L69.8484 31.1186ZM75.5648 26.7124C75.4772 26.7374 75.2529 26.7963 74.8358 26.8941L78.0305 40.5247C78.5225 40.4094 79.0013 40.2907 79.4109 40.1737L75.5648 26.7124ZM74.8118 26.8997C74.8728 26.8852 74.8804 26.8873 74.8215 26.8947C74.7641 26.9019 74.6614 26.912 74.5066 26.919L75.1423 40.9046C76.0613 40.8628 77.0579 40.7563 78.0545 40.519L74.8118 26.8997ZM74.4993 26.9194C74.2471 26.9311 74.1085 26.9175 74.0631 26.9114C74.0202 26.9055 74.0863 26.9099 74.2265 26.9646L69.1369 40.0067C71.1563 40.7947 73.2337 40.9934 75.1497 40.9042L74.4993 26.9194ZM74.2906 26.99C74.4504 27.0542 74.6885 27.1761 74.9491 27.3879C75.2138 27.6031 75.4386 27.86 75.6093 28.1306L63.7698 35.6021C65.0808 37.6796 66.9546 39.1306 69.0728 39.9813L74.2906 26.99ZM75.6352 28.1719C76.062 28.8588 76.0265 29.347 76.0285 29.1969L62.0296 29.0174C62.0031 31.0832 62.408 33.4108 63.7438 35.5608L75.6352 28.1719ZM76.029 29.1071V13.3933H62.029V29.1071H76.029ZM82.9051 33.6774L76.131 35.4415L77.4945 40.6774H82.9051V33.6774ZM78.6437 17.3138V10.3138H69.5873L71.8697 19.0779L78.6437 17.3138ZM83.8746 17.3138L90.7246 15.8728L89.5552 10.3138H83.8746V17.3138ZM86.0798 27.7967L79.2297 29.2378L80.3992 34.7967H86.0798V27.7967ZM86.2183 27.7967V34.7967H91.815L93.0467 29.3373L86.2183 27.7967ZM88.5834 17.3138V10.3138H82.9867L81.755 15.7732L88.5834 17.3138ZM93.6863 17.3138L100.503 15.723L99.2409 10.3138H93.6863V17.3138ZM96.1153 27.7222L89.2985 29.313L90.5608 34.7222H96.1153V27.7222ZM96.2538 27.7222V34.7222H101.96L103.11 29.1328L96.2538 27.7222ZM98.3952 17.3138V10.3138H92.6887L91.5388 15.9032L98.3952 17.3138ZM103.626 17.3138L110.399 19.082L112.688 10.3138H103.626V17.3138ZM99.354 33.6774V40.6774H104.761L106.127 35.4456L99.354 33.6774ZM93.7822 33.6774L87.0211 35.4905L88.412 40.6774H93.7822V33.6774ZM91.2254 24.1426L97.9865 22.3296L96.5956 17.1426H91.2254V24.1426ZM91.0443 24.1426V17.1426H85.6741L84.2832 22.3296L91.0443 24.1426ZM88.4875 33.6774V40.6774H93.8577L95.2486 35.4905L88.4875 33.6774ZM89.6792 31.9133L85.4178 15.5497L71.8697 19.0779L76.131 35.4415L89.6792 31.9133ZM78.6437 24.3138H83.8746V10.3138H78.6437V24.3138ZM77.0245 18.7548L79.2297 29.2378L92.9299 26.3557L90.7246 15.8728L77.0245 18.7548ZM86.0798 34.7967H86.2183V20.7967H86.0798V34.7967ZM93.0467 29.3373L95.4117 18.8543L81.755 15.7732L79.3899 26.2562L93.0467 29.3373ZM88.5834 24.3138H93.6863V10.3138H88.5834V24.3138ZM86.8695 18.9046L89.2985 29.313L102.932 26.1313L100.503 15.723L86.8695 18.9046ZM96.1153 34.7222H96.2538V20.7222H96.1153V34.7222ZM103.11 29.1328L105.252 18.7244L91.5388 15.9032L89.3974 26.3116L103.11 29.1328ZM98.3952 24.3138H103.626V10.3138H98.3952V24.3138ZM96.853 15.5456L92.581 31.9092L106.127 35.4456L110.399 19.082L96.853 15.5456ZM99.354 26.6774H93.7822V40.6774H99.354V26.6774ZM100.543 31.8644L97.9865 22.3296L84.4643 25.9557L87.0211 35.4905L100.543 31.8644ZM91.2254 17.1426H91.0443V31.1426H91.2254V17.1426ZM84.2832 22.3296L81.7264 31.8644L95.2486 35.4905L97.8054 25.9557L84.2832 22.3296ZM88.4875 26.6774H82.9051V40.6774H88.4875V26.6774ZM105.717 33.6774H98.7167V40.6774H105.717V33.6774ZM105.717 17.3138V10.3138H98.7167V17.3138H105.717ZM110.926 17.3138H117.926V10.3138H110.926V17.3138ZM110.926 33.6774V40.6774H117.926V33.6774H110.926ZM106.441 14.6824L101.667 19.8021L101.686 19.8195L101.705 19.8367L106.441 14.6824ZM106.441 11.1668L111.178 16.3211L111.196 16.3038L111.215 16.2865L106.441 11.1668ZM110.212 11.1668L105.404 16.2539L105.44 16.2878L105.476 16.3211L110.212 11.1668ZM110.212 14.6824L114.984 19.8045L114.986 19.8021L110.212 14.6824ZM112.717 33.6774V17.3138H98.7167V33.6774H112.717ZM105.717 24.3138H110.926V10.3138H105.717V24.3138ZM103.926 17.3138V33.6774H117.926V17.3138H103.926ZM110.926 26.6774H105.717V40.6774H110.926V26.6774ZM108.327 8.40683C108.745 8.40683 109.264 8.47869 109.817 8.69136C110.374 8.90513 110.831 9.20981 111.178 9.52811L101.705 19.8367C103.557 21.5389 105.889 22.4068 108.327 22.4068V8.40683ZM111.215 9.56272C111.561 9.88522 111.951 10.3676 112.243 11.0226C112.538 11.6843 112.653 12.3436 112.653 12.9139H98.6528C98.6528 15.6366 99.7908 18.0523 101.667 19.8021L111.215 9.56272ZM112.653 12.9139C112.653 13.498 112.534 14.1713 112.23 14.8448C111.93 15.5109 111.529 15.9979 111.178 16.3211L101.705 6.01248C99.8129 7.75092 98.6528 10.1716 98.6528 12.9139H112.653ZM111.215 16.2865C110.872 16.6061 110.413 16.9174 109.849 17.1374C109.287 17.3565 108.757 17.4317 108.327 17.4317V3.43169C105.859 3.43169 103.515 4.32473 101.667 6.04709L111.215 16.2865ZM108.327 17.4317C107.909 17.4317 107.38 17.3595 106.81 17.1374C106.236 16.9136 105.762 16.5926 105.404 16.2539L115.021 6.07962C113.153 4.31389 110.784 3.43169 108.327 3.43169V17.4317ZM105.476 16.3211C105.124 15.9979 104.724 15.5109 104.423 14.8448C104.119 14.1713 104.001 13.498 104.001 12.9139H118.001C118.001 10.1716 116.841 7.75092 114.949 6.01248L105.476 16.3211ZM104.001 12.9139C104.001 12.3436 104.115 11.6843 104.41 11.0226C104.702 10.3676 105.093 9.88522 105.439 9.56272L114.986 19.8021C116.863 18.0523 118.001 15.6366 118.001 12.9139H104.001ZM105.441 9.56035C105.803 9.22302 106.276 8.90886 106.842 8.69136C107.403 8.47577 107.921 8.40683 108.327 8.40683V22.4068C110.753 22.4068 113.11 21.5497 114.984 19.8044L105.441 9.56035ZM123.479 17.3138H130.479V10.3138H123.479V17.3138ZM123.479 21.149V28.149H130.479V21.149H123.479ZM113.155 21.149H106.155V28.149H113.155V21.149ZM113.155 17.3138V10.3138H106.155V17.3138H113.155ZM115.318 13.3933V6.39334H108.318V13.3933H115.318ZM120.528 13.3933H127.528V6.39334H120.528V13.3933ZM120.677 29.3095L114.416 32.44L114.484 32.5761L114.558 32.709L120.677 29.3095ZM121.135 29.725L118.377 36.159L118.476 36.2012L118.575 36.2403L121.135 29.725ZM122.477 29.7889L123.592 36.6996L123.68 36.6854L123.767 36.669L122.477 29.7889ZM122.989 29.6824L129.84 28.2462L128.347 21.1273L121.291 22.8914L122.989 29.6824ZM123.777 33.4431L125.7 40.1737L131.965 38.3838L130.628 32.0068L123.777 33.4431ZM122.722 33.7094L121.125 26.8941L121.113 26.8969L121.101 26.8997L122.722 33.7094ZM121.114 33.9118L120.796 26.919L120.788 26.9194L121.114 33.9118ZM117.971 33.4857L115.362 39.9813L115.394 39.9942L115.426 40.0067L117.971 33.4857ZM115.979 31.8663L110.033 35.5608L110.046 35.5815L110.059 35.6021L115.979 31.8663ZM115.318 29.1071L122.318 29.1969L122.318 29.152V29.1071H115.318ZM116.479 17.3138V21.149H130.479V17.3138H116.479ZM123.479 14.149H113.155V28.149H123.479V14.149ZM120.155 21.149V17.3138H106.155V21.149H120.155ZM113.155 24.3138H123.479V10.3138H113.155V24.3138ZM115.318 20.3933H120.528V6.39334H115.318V20.3933ZM113.528 13.3933V28.5318H127.528V13.3933H113.528ZM113.528 28.5318C113.528 29.4958 113.665 30.9387 114.416 32.44L126.938 26.179C127.49 27.2827 127.528 28.2071 127.528 28.5318H113.528ZM114.558 32.709C115.406 34.2364 116.731 35.4536 118.377 36.159L123.892 23.291C125.141 23.826 126.16 24.7662 126.796 25.91L114.558 32.709ZM118.575 36.2403C119.792 36.7181 120.943 36.8422 121.849 36.8422V22.8422C122.201 22.8422 122.876 22.8882 123.694 23.2098L118.575 36.2403ZM121.849 36.8422C122.463 36.8422 123.047 36.7875 123.592 36.6996L121.363 22.8782C121.467 22.8613 121.632 22.8422 121.849 22.8422V36.8422ZM123.767 36.669C124.027 36.6203 124.364 36.5541 124.686 36.4734L121.291 22.8914C121.327 22.8824 121.35 22.8771 121.356 22.8758C121.363 22.8742 121.361 22.8748 121.348 22.8775C121.32 22.8832 121.269 22.8935 121.187 22.9088L123.767 36.669ZM116.137 31.1186L116.926 34.8793L130.628 32.0068L129.84 28.2462L116.137 31.1186ZM121.854 26.7124C121.766 26.7374 121.542 26.7963 121.125 26.8941L124.32 40.5247C124.812 40.4094 125.29 40.2907 125.7 40.1737L121.854 26.7124ZM121.101 26.8997C121.162 26.8852 121.169 26.8873 121.111 26.8947C121.053 26.9019 120.95 26.912 120.796 26.919L121.431 40.9046C122.35 40.8628 123.347 40.7563 124.344 40.519L121.101 26.8997ZM120.788 26.9194C120.536 26.9311 120.398 26.9175 120.352 26.9114C120.309 26.9055 120.375 26.9099 120.516 26.9646L115.426 40.0067C117.445 40.7947 119.523 40.9934 121.439 40.9042L120.788 26.9194ZM120.58 26.99C120.739 27.0542 120.978 27.1761 121.238 27.3879C121.503 27.6031 121.728 27.86 121.898 28.1306L110.059 35.6021C111.37 37.6796 113.244 39.1306 115.362 39.9813L120.58 26.99ZM121.924 28.1719C122.351 28.8588 122.316 29.347 122.318 29.1969L108.319 29.0174C108.292 31.0832 108.697 33.4108 110.033 35.5608L121.924 28.1719ZM122.318 29.1071V13.3933H108.318V29.1071H122.318ZM129.157 32.921L125.654 38.9814L125.661 38.9858L125.669 38.9901L129.157 32.921ZM126.323 29.9594L120.111 33.1867L120.115 33.1938L120.119 33.2009L126.323 29.9594ZM126.323 21.1384L120.126 17.8839L120.122 17.8903L120.119 17.8968L126.323 21.1384ZM129.168 18.1661L125.68 12.097L125.672 12.1013L125.664 12.1057L129.168 18.1661ZM137.541 17.921L134.474 24.2136L134.482 24.2174L134.49 24.2212L137.541 17.921ZM140.183 20.2435L134.264 23.9798L134.279 24.0044L134.295 24.0288L140.183 20.2435ZM141.195 23.7485V30.7485H148.383L148.193 23.5633L141.195 23.7485ZM136.327 23.7485L129.375 24.5732L130.108 30.7485H136.327V23.7485ZM135.474 21.7776L130.45 26.6518L130.469 26.6709L130.488 26.69L135.474 21.7776ZM132.076 21.5752L136.219 27.2172L136.248 27.1963L136.276 27.1752L132.076 21.5752ZM131.011 23.0666L124.483 20.5397L124.475 20.5586L124.468 20.5776L131.011 23.0666ZM131.011 27.9459L124.451 30.3885L124.466 30.4308L124.483 30.4729L131.011 27.9459ZM132.076 29.448L127.876 35.048L127.904 35.0692L127.933 35.0901L132.076 29.448ZM134.942 29.6398L131.582 23.499L131.557 23.5125L131.532 23.5262L134.942 29.6398ZM135.869 28.7342L141.852 32.3671L141.866 32.3437L141.88 32.3202L135.869 28.7342ZM136.327 27.2641V20.2641H130.061L129.369 26.4911L136.327 27.2641ZM141.195 27.2641L148.19 27.5218L148.458 20.2641H141.195V27.2641ZM140.183 30.801L134.233 27.1136L134.224 27.1288L134.214 27.1441L140.183 30.801ZM137.573 33.1554L140.688 39.4244L140.696 39.4204L140.704 39.4164L137.573 33.1554ZM133.599 26.9864C133.215 26.9864 132.967 26.9467 132.827 26.913C132.757 26.8963 132.711 26.8806 132.685 26.8703C132.66 26.8602 132.648 26.8535 132.645 26.8519L125.669 38.9901C128.169 40.4269 130.907 40.9864 133.599 40.9864V26.9864ZM132.66 26.8607C132.625 26.8407 132.606 26.8265 132.597 26.8197C132.589 26.8131 132.586 26.8096 132.585 26.8086C132.584 26.8075 132.579 26.803 132.571 26.792C132.564 26.7809 132.548 26.7576 132.527 26.7179L120.119 33.2009C121.391 35.6356 123.269 37.6032 125.654 38.9814L132.66 26.8607ZM132.535 26.7321C132.471 26.6104 132.332 26.2801 132.332 25.5489H118.332C118.332 28.1557 118.854 30.7658 120.111 33.1867L132.535 26.7321ZM132.332 25.5489C132.332 24.8041 132.474 24.482 132.527 24.3799L120.119 17.8968C118.851 20.3231 118.332 22.9414 118.332 25.5489H132.332ZM132.52 24.3929C132.565 24.309 132.591 24.2826 132.592 24.2816C132.595 24.2787 132.6 24.2741 132.609 24.2671C132.618 24.2599 132.637 24.2459 132.671 24.2264L125.664 12.1057C123.276 13.4861 121.401 15.4561 120.126 17.8839L132.52 24.3929ZM132.656 24.2352C132.66 24.2326 132.709 24.2036 132.839 24.1723C132.976 24.1395 133.215 24.1007 133.589 24.1007V10.1007C130.899 10.1007 128.171 10.665 125.68 12.097L132.656 24.2352ZM133.589 24.1007C133.925 24.1007 134.152 24.1313 134.289 24.1597C134.357 24.1739 134.404 24.1876 134.432 24.1971C134.46 24.2066 134.473 24.2129 134.474 24.2136L140.608 11.6285C138.349 10.5278 135.942 10.1007 133.589 10.1007V24.1007ZM134.49 24.2212C134.526 24.2387 134.493 24.2271 134.427 24.1693C134.359 24.1096 134.302 24.04 134.264 23.9798L146.103 16.5071C144.73 14.3332 142.825 12.7023 140.592 11.6209L134.49 24.2212ZM134.295 24.0288C134.268 23.9873 134.245 23.9443 134.226 23.9027C134.208 23.8612 134.196 23.8281 134.19 23.8074C134.178 23.764 134.194 23.7961 134.198 23.9336L148.193 23.5633C148.128 21.1199 147.493 18.669 146.071 16.4582L134.295 24.0288ZM141.195 16.7485H136.327V30.7485H141.195V16.7485ZM143.278 22.9237C143.044 20.9557 142.28 18.7115 140.461 16.8652L130.488 26.69C129.606 25.7954 129.41 24.865 129.375 24.5732L143.278 22.9237ZM140.499 16.9034C138.548 14.8932 136.043 14.0638 133.663 14.0638V28.0638C133.287 28.0638 132.737 28.0022 132.109 27.7547C131.464 27.5005 130.897 27.1125 130.45 26.6518L140.499 16.9034ZM133.663 14.0638C131.646 14.0638 129.62 14.6668 127.876 15.9752L136.276 27.1752C135.896 27.4599 135.451 27.6964 134.96 27.8544C134.474 28.011 134.028 28.0638 133.663 28.0638V14.0638ZM127.933 15.9331C126.158 17.2364 125.097 18.9519 124.483 20.5397L137.539 25.5936C137.435 25.8604 137.085 26.5815 136.219 27.2172L127.933 15.9331ZM124.468 20.5776C123.826 22.2662 123.638 23.9809 123.638 25.4956H137.638C137.638 25.4036 137.641 25.3355 137.644 25.2893C137.647 25.243 137.65 25.2229 137.65 25.2261C137.649 25.2292 137.645 25.2601 137.631 25.3147C137.617 25.3694 137.593 25.4516 137.553 25.5556L124.468 20.5776ZM123.638 25.4956C123.638 27.018 123.828 28.7159 124.451 30.3885L137.571 25.5033C137.605 25.5947 137.625 25.6659 137.637 25.7118C137.648 25.7577 137.652 25.7815 137.651 25.7795C137.651 25.7776 137.647 25.7537 137.644 25.7052C137.641 25.6568 137.638 25.5876 137.638 25.4956H123.638ZM124.483 30.4729C125.095 32.0553 126.142 33.7479 127.876 35.048L136.276 23.848C137.1 24.4664 137.437 25.1575 137.539 25.4189L124.483 30.4729ZM127.933 35.0901C129.675 36.3698 131.681 36.9487 133.663 36.9487V22.9487C134.013 22.9487 134.445 22.9983 134.919 23.1478C135.398 23.2988 135.839 23.5266 136.219 23.806L127.933 35.0901ZM133.663 36.9487C135.168 36.9487 136.799 36.6189 138.351 35.7533L131.532 23.5262C132.346 23.0726 133.125 22.9487 133.663 22.9487V36.9487ZM138.302 35.7806C139.848 34.9345 141.027 33.7253 141.852 32.3671L129.885 25.1014C130.227 24.5386 130.788 23.9332 131.582 23.499L138.302 35.7806ZM141.88 32.3202C142.737 30.8834 143.134 29.3855 143.284 28.0371L129.369 26.4911C129.391 26.2933 129.483 25.7754 129.857 25.1483L141.88 32.3202ZM136.327 34.2641H141.195V20.2641H136.327V34.2641ZM134.2 27.0064C134.194 27.1727 134.173 27.24 134.175 27.2347C134.176 27.2327 134.18 27.2179 134.191 27.1938C134.201 27.1695 134.216 27.1419 134.233 27.1136L146.133 34.4884C147.483 32.3109 148.102 29.9154 148.19 27.5218L134.2 27.0064ZM134.214 27.1441C134.253 27.0815 134.31 27.0097 134.379 26.9482C134.445 26.8887 134.479 26.8765 134.443 26.8944L140.704 39.4164C142.922 38.307 144.808 36.6516 146.152 34.458L134.214 27.1441ZM134.459 26.8865C134.51 26.8609 134.299 26.9864 133.599 26.9864V40.9864C135.968 40.9864 138.406 40.5578 140.688 39.4244L134.459 26.8865ZM149.071 24.345L142.071 24.2655L142.071 24.3053V24.345H149.071ZM149.071 33.6774V40.6774H156.071V33.6774H149.071ZM143.861 33.6774H136.861V40.6774H143.861V33.6774ZM143.861 11.8592V4.85925H136.861V11.8592H143.861ZM148.9 11.8592H155.9V4.85925H148.9V11.8592ZM148.9 20.3181H141.9V27.3181H148.9V20.3181ZM149.081 20.3181V27.3181H153.973L155.655 22.7251L149.081 20.3181ZM150.892 17.953L146.987 12.1437L146.976 12.1514L146.964 12.159L150.892 17.953ZM156.997 17.8678L153.395 23.8702L153.414 23.8813L153.432 23.8923L156.997 17.8678ZM158.978 20.0091L152.737 23.178L152.746 23.197L152.756 23.2159L158.978 20.0091ZM159.682 23.2477L152.682 23.2075L152.682 23.2276V23.2477H159.682ZM159.682 33.6774V40.6774H166.682V33.6774H159.682ZM154.472 33.6774H147.472V40.6774H154.472V33.6774ZM154.472 24.2705L147.472 24.2158L147.472 24.2431V24.2705H154.472ZM153.79 22.1398L148.594 26.8305L148.594 26.8305L153.79 22.1398ZM150.392 21.735L153.853 27.8191L153.87 27.8096L153.887 27.8L150.392 21.735ZM149.422 22.747L143.243 19.4581L143.222 19.4972L143.202 19.5365L149.422 22.747ZM142.071 24.345V33.6774H156.071V24.345H142.071ZM149.071 26.6774H143.861V40.6774H149.071V26.6774ZM150.861 33.6774V11.8592H136.861V33.6774H150.861ZM143.861 18.8592H148.9V4.85925H143.861V18.8592ZM141.9 11.8592V20.3181H155.9V11.8592H141.9ZM148.9 27.3181H149.081V13.3181H148.9V27.3181ZM155.655 22.7251C155.616 22.8308 155.531 23.0151 155.369 23.2263C155.205 23.4408 155.011 23.6176 154.821 23.747L146.964 12.159C144.835 13.6025 143.35 15.6129 142.508 17.911L155.655 22.7251ZM154.798 23.7623C154.56 23.922 154.331 24.0154 154.157 24.0634C153.992 24.1088 153.923 24.1007 153.993 24.1007V10.1007C151.662 10.1007 149.201 10.6557 146.987 12.1437L154.798 23.7623ZM153.993 24.1007C154.049 24.1007 154 24.1068 153.875 24.0749C153.744 24.0415 153.574 23.9776 153.395 23.8702L160.598 11.8653C158.496 10.6041 156.209 10.1007 153.993 10.1007V24.1007ZM153.432 23.8923C153.286 23.8057 153.132 23.6851 152.994 23.5356C152.857 23.3878 152.776 23.256 152.737 23.178L165.22 16.8403C164.178 14.7868 162.613 13.0573 160.561 11.8433L153.432 23.8923ZM152.756 23.2159C152.727 23.1601 152.707 23.1105 152.693 23.0704C152.678 23.0306 152.672 23.0047 152.67 22.9964C152.667 22.98 152.683 23.0428 152.682 23.2075L166.681 23.288C166.694 21.1363 166.283 18.9032 165.201 16.8023L152.756 23.2159ZM152.682 23.2477V33.6774H166.682V23.2477H152.682ZM159.682 26.6774H154.472V40.6774H159.682V26.6774ZM161.472 33.6774V24.2705H147.472V33.6774H161.472ZM161.472 24.3252C161.488 22.2374 160.956 19.6314 158.986 17.4491L148.594 26.8305C147.547 25.6709 147.47 24.4854 147.472 24.2158L161.472 24.3252ZM158.986 17.4491C156.915 15.1548 154.195 14.3727 151.841 14.3727V28.3727C151.554 28.3727 151.031 28.329 150.394 28.0785C149.726 27.8158 149.099 27.3892 148.594 26.8305L158.986 17.4491ZM151.841 14.3727C150.23 14.3727 148.512 14.7392 146.897 15.6699L153.887 27.8C153.11 28.2478 152.357 28.3727 151.841 28.3727V14.3727ZM146.93 15.6508C145.304 16.576 144.066 17.9119 143.243 19.4581L155.602 26.036C155.247 26.7015 154.656 27.3627 153.853 27.8191L146.93 15.6508ZM143.202 19.5365C142.361 21.1653 142.088 22.828 142.071 24.2655L156.07 24.4246C156.068 24.6121 156.029 25.2094 155.643 25.9575L143.202 19.5365Z" fill="#6C1AE7" mask="url(#path-1-outside-1_4_116)"/>
<g clip-path="url(#clip0_4_116)">
<path d="M193.5 40.3333C204.316 40.3333 213.083 32.1252 213.083 22C213.083 11.8748 204.316 3.66666 193.5 3.66666C182.684 3.66666 173.917 11.8748 173.917 22C173.917 32.1252 182.684 40.3333 193.5 40.3333Z" fill="white" stroke="#6C1AE7" stroke-width="7" stroke-linecap="round" stroke-linejoin="round"/>
<path d="M193.5 11V22H184.688" stroke="#6C1AE7" stroke-width="6" stroke-linecap="round" stroke-linejoin="round"/>
</g>
<defs>
<clipPath id="clip0_4_116">
<rect width="47" height="44" fill="white" transform="translate(170)"/>
</clipPath>
</defs>
</svg>
